<?xml version="1.0" encoding="utf-8" standalone="no"?>
<!DOCTYPE svg PUBLIC "-//W3C//DTD SVG 1.1//EN"
  "http://www.w3.org/Graphics/SVG/1.1/DTD/svg11.dtd">
<!-- Created with matplotlib (https://matplotlib.org/) -->
<svg height="469.458125pt" version="1.1" viewBox="0 0 598.803125 469.458125" width="598.803125pt" xmlns="http://www.w3.org/2000/svg" xmlns:xlink="http://www.w3.org/1999/xlink">
 <defs>
  <style type="text/css">
*{stroke-linecap:butt;stroke-linejoin:round;}
  </style>
 </defs>
 <g id="figure_1">
  <g id="patch_1">
   <path d="M -0 469.458125 
L 598.803125 469.458125 
L 598.803125 0 
L -0 0 
z
" style="fill:none;"/>
  </g>
  <g id="axes_1">
   <g id="patch_2">
    <path d="M 30.103125 445.58 
L 588.103125 445.58 
L 588.103125 10.7 
L 30.103125 10.7 
z
" style="fill:#ffffff;"/>
   </g>
   <g id="matplotlib.axis_1">
    <g id="xtick_1">
     <g id="line2d_1">
      <defs>
       <path d="M 0 0 
L 0 3.5 
" id="m6fa46d68d8" style="stroke:#000000;stroke-width:0.8;"/>
      </defs>
      <g>
       <use style="stroke:#000000;stroke-width:0.8;" x="55.466761" xlink:href="#m6fa46d68d8" y="445.58"/>
      </g>
     </g>
     <g id="text_1">
      <!-- −3 -->
      <defs>
       <path d="M 10.59375 35.5 
L 73.1875 35.5 
L 73.1875 27.203125 
L 10.59375 27.203125 
z
" id="DejaVuSans-8722"/>
       <path d="M 40.578125 39.3125 
Q 47.65625 37.796875 51.625 33 
Q 55.609375 28.21875 55.609375 21.1875 
Q 55.609375 10.40625 48.1875 4.484375 
Q 40.765625 -1.421875 27.09375 -1.421875 
Q 22.515625 -1.421875 17.65625 -0.515625 
Q 12.796875 0.390625 7.625 2.203125 
L 7.625 11.71875 
Q 11.71875 9.328125 16.59375 8.109375 
Q 21.484375 6.890625 26.8125 6.890625 
Q 36.078125 6.890625 40.9375 10.546875 
Q 45.796875 14.203125 45.796875 21.1875 
Q 45.796875 27.640625 41.28125 31.265625 
Q 36.765625 34.90625 28.71875 34.90625 
L 20.21875 34.90625 
L 20.21875 43.015625 
L 29.109375 43.015625 
Q 36.375 43.015625 40.234375 45.921875 
Q 44.09375 48.828125 44.09375 54.296875 
Q 44.09375 59.90625 40.109375 62.90625 
Q 36.140625 65.921875 28.71875 65.921875 
Q 24.65625 65.921875 20.015625 65.03125 
Q 15.375 64.15625 9.8125 62.3125 
L 9.8125 71.09375 
Q 15.4375 72.65625 20.34375 73.4375 
Q 25.25 74.21875 29.59375 74.21875 
Q 40.828125 74.21875 47.359375 69.109375 
Q 53.90625 64.015625 53.90625 55.328125 
Q 53.90625 49.265625 50.4375 45.09375 
Q 46.96875 40.921875 40.578125 39.3125 
z
" id="DejaVuSans-51"/>
      </defs>
      <g transform="translate(48.095668 460.178437)scale(0.1 -0.1)">
       <use xlink:href="#DejaVuSans-8722"/>
       <use x="83.789062" xlink:href="#DejaVuSans-51"/>
      </g>
     </g>
    </g>
    <g id="xtick_2">
     <g id="line2d_2">
      <g>
       <use style="stroke:#000000;stroke-width:0.8;" x="140.012216" xlink:href="#m6fa46d68d8" y="445.58"/>
      </g>
     </g>
     <g id="text_2">
      <!-- −2 -->
      <defs>
       <path d="M 19.1875 8.296875 
L 53.609375 8.296875 
L 53.609375 0 
L 7.328125 0 
L 7.328125 8.296875 
Q 12.9375 14.109375 22.625 23.890625 
Q 32.328125 33.6875 34.8125 36.53125 
Q 39.546875 41.84375 41.421875 45.53125 
Q 43.3125 49.21875 43.3125 52.78125 
Q 43.3125 58.59375 39.234375 62.25 
Q 35.15625 65.921875 28.609375 65.921875 
Q 23.96875 65.921875 18.8125 64.3125 
Q 13.671875 62.703125 7.8125 59.421875 
L 7.8125 69.390625 
Q 13.765625 71.78125 18.9375 73 
Q 24.125 74.21875 28.421875 74.21875 
Q 39.75 74.21875 46.484375 68.546875 
Q 53.21875 62.890625 53.21875 53.421875 
Q 53.21875 48.921875 51.53125 44.890625 
Q 49.859375 40.875 45.40625 35.40625 
Q 44.1875 33.984375 37.640625 27.21875 
Q 31.109375 20.453125 19.1875 8.296875 
z
" id="DejaVuSans-50"/>
      </defs>
      <g transform="translate(132.641122 460.178437)scale(0.1 -0.1)">
       <use xlink:href="#DejaVuSans-8722"/>
       <use x="83.789062" xlink:href="#DejaVuSans-50"/>
      </g>
     </g>
    </g>
    <g id="xtick_3">
     <g id="line2d_3">
      <g>
       <use style="stroke:#000000;stroke-width:0.8;" x="224.55767" xlink:href="#m6fa46d68d8" y="445.58"/>
      </g>
     </g>
     <g id="text_3">
      <!-- −1 -->
      <defs>
       <path d="M 12.40625 8.296875 
L 28.515625 8.296875 
L 28.515625 63.921875 
L 10.984375 60.40625 
L 10.984375 69.390625 
L 28.421875 72.90625 
L 38.28125 72.90625 
L 38.28125 8.296875 
L 54.390625 8.296875 
L 54.390625 0 
L 12.40625 0 
z
" id="DejaVuSans-49"/>
      </defs>
      <g transform="translate(217.186577 460.178437)scale(0.1 -0.1)">
       <use xlink:href="#DejaVuSans-8722"/>
       <use x="83.789062" xlink:href="#DejaVuSans-49"/>
      </g>
     </g>
    </g>
    <g id="xtick_4">
     <g id="line2d_4">
      <g>
       <use style="stroke:#000000;stroke-width:0.8;" x="309.103125" xlink:href="#m6fa46d68d8" y="445.58"/>
      </g>
     </g>
     <g id="text_4">
      <!-- 0 -->
      <defs>
       <path d="M 31.78125 66.40625 
Q 24.171875 66.40625 20.328125 58.90625 
Q 16.5 51.421875 16.5 36.375 
Q 16.5 21.390625 20.328125 13.890625 
Q 24.171875 6.390625 31.78125 6.390625 
Q 39.453125 6.390625 43.28125 13.890625 
Q 47.125 21.390625 47.125 36.375 
Q 47.125 51.421875 43.28125 58.90625 
Q 39.453125 66.40625 31.78125 66.40625 
z
M 31.78125 74.21875 
Q 44.046875 74.21875 50.515625 64.515625 
Q 56.984375 54.828125 56.984375 36.375 
Q 56.984375 17.96875 50.515625 8.265625 
Q 44.046875 -1.421875 31.78125 -1.421875 
Q 19.53125 -1.421875 13.0625 8.265625 
Q 6.59375 17.96875 6.59375 36.375 
Q 6.59375 54.828125 13.0625 64.515625 
Q 19.53125 74.21875 31.78125 74.21875 
z
" id="DejaVuSans-48"/>
      </defs>
      <g transform="translate(305.921875 460.178437)scale(0.1 -0.1)">
       <use xlink:href="#DejaVuSans-48"/>
      </g>
     </g>
    </g>
    <g id="xtick_5">
     <g id="line2d_5">
      <g>
       <use style="stroke:#000000;stroke-width:0.8;" x="393.64858" xlink:href="#m6fa46d68d8" y="445.58"/>
      </g>
     </g>
     <g id="text_5">
      <!-- 1 -->
      <g transform="translate(390.46733 460.178437)scale(0.1 -0.1)">
       <use xlink:href="#DejaVuSans-49"/>
      </g>
     </g>
    </g>
    <g id="xtick_6">
     <g id="line2d_6">
      <g>
       <use style="stroke:#000000;stroke-width:0.8;" x="478.194034" xlink:href="#m6fa46d68d8" y="445.58"/>
      </g>
     </g>
     <g id="text_6">
      <!-- 2 -->
      <g transform="translate(475.012784 460.178437)scale(0.1 -0.1)">
       <use xlink:href="#DejaVuSans-50"/>
      </g>
     </g>
    </g>
    <g id="xtick_7">
     <g id="line2d_7">
      <g>
       <use style="stroke:#000000;stroke-width:0.8;" x="562.739489" xlink:href="#m6fa46d68d8" y="445.58"/>
      </g>
     </g>
     <g id="text_7">
      <!-- 3 -->
      <g transform="translate(559.558239 460.178437)scale(0.1 -0.1)">
       <use xlink:href="#DejaVuSans-51"/>
      </g>
     </g>
    </g>
   </g>
   <g id="matplotlib.axis_2">
    <g id="ytick_1">
     <g id="line2d_8">
      <defs>
       <path d="M 0 0 
L -3.5 0 
" id="m55d5030a25" style="stroke:#000000;stroke-width:0.8;"/>
      </defs>
      <g>
       <use style="stroke:#000000;stroke-width:0.8;" x="30.103125" xlink:href="#m55d5030a25" y="425.812727"/>
      </g>
     </g>
     <g id="text_8">
      <!-- 0.0 -->
      <defs>
       <path d="M 10.6875 12.40625 
L 21 12.40625 
L 21 0 
L 10.6875 0 
z
" id="DejaVuSans-46"/>
      </defs>
      <g transform="translate(7.2 429.611946)scale(0.1 -0.1)">
       <use xlink:href="#DejaVuSans-48"/>
       <use x="63.623047" xlink:href="#DejaVuSans-46"/>
       <use x="95.410156" xlink:href="#DejaVuSans-48"/>
      </g>
     </g>
    </g>
    <g id="ytick_2">
     <g id="line2d_9">
      <g>
       <use style="stroke:#000000;stroke-width:0.8;" x="30.103125" xlink:href="#m55d5030a25" y="359.921818"/>
      </g>
     </g>
     <g id="text_9">
      <!-- 0.5 -->
      <defs>
       <path d="M 10.796875 72.90625 
L 49.515625 72.90625 
L 49.515625 64.59375 
L 19.828125 64.59375 
L 19.828125 46.734375 
Q 21.96875 47.46875 24.109375 47.828125 
Q 26.265625 48.1875 28.421875 48.1875 
Q 40.625 48.1875 47.75 41.5 
Q 54.890625 34.8125 54.890625 23.390625 
Q 54.890625 11.625 47.5625 5.09375 
Q 40.234375 -1.421875 26.90625 -1.421875 
Q 22.3125 -1.421875 17.546875 -0.640625 
Q 12.796875 0.140625 7.71875 1.703125 
L 7.71875 11.625 
Q 12.109375 9.234375 16.796875 8.0625 
Q 21.484375 6.890625 26.703125 6.890625 
Q 35.15625 6.890625 40.078125 11.328125 
Q 45.015625 15.765625 45.015625 23.390625 
Q 45.015625 31 40.078125 35.4375 
Q 35.15625 39.890625 26.703125 39.890625 
Q 22.75 39.890625 18.8125 39.015625 
Q 14.890625 38.140625 10.796875 36.28125 
z
" id="DejaVuSans-53"/>
      </defs>
      <g transform="translate(7.2 363.721037)scale(0.1 -0.1)">
       <use xlink:href="#DejaVuSans-48"/>
       <use x="63.623047" xlink:href="#DejaVuSans-46"/>
       <use x="95.410156" xlink:href="#DejaVuSans-53"/>
      </g>
     </g>
    </g>
    <g id="ytick_3">
     <g id="line2d_10">
      <g>
       <use style="stroke:#000000;stroke-width:0.8;" x="30.103125" xlink:href="#m55d5030a25" y="294.030909"/>
      </g>
     </g>
     <g id="text_10">
      <!-- 1.0 -->
      <g transform="translate(7.2 297.830128)scale(0.1 -0.1)">
       <use xlink:href="#DejaVuSans-49"/>
       <use x="63.623047" xlink:href="#DejaVuSans-46"/>
       <use x="95.410156" xlink:href="#DejaVuSans-48"/>
      </g>
     </g>
    </g>
    <g id="ytick_4">
     <g id="line2d_11">
      <g>
       <use style="stroke:#000000;stroke-width:0.8;" x="30.103125" xlink:href="#m55d5030a25" y="228.14"/>
      </g>
     </g>
     <g id="text_11">
      <!-- 1.5 -->
      <g transform="translate(7.2 231.939219)scale(0.1 -0.1)">
       <use xlink:href="#DejaVuSans-49"/>
       <use x="63.623047" xlink:href="#DejaVuSans-46"/>
       <use x="95.410156" xlink:href="#DejaVuSans-53"/>
      </g>
     </g>
    </g>
    <g id="ytick_5">
     <g id="line2d_12">
      <g>
       <use style="stroke:#000000;stroke-width:0.8;" x="30.103125" xlink:href="#m55d5030a25" y="162.249091"/>
      </g>
     </g>
     <g id="text_12">
      <!-- 2.0 -->
      <g transform="translate(7.2 166.04831)scale(0.1 -0.1)">
       <use xlink:href="#DejaVuSans-50"/>
       <use x="63.623047" xlink:href="#DejaVuSans-46"/>
       <use x="95.410156" xlink:href="#DejaVuSans-48"/>
      </g>
     </g>
    </g>
    <g id="ytick_6">
     <g id="line2d_13">
      <g>
       <use style="stroke:#000000;stroke-width:0.8;" x="30.103125" xlink:href="#m55d5030a25" y="96.358182"/>
      </g>
     </g>
     <g id="text_13">
      <!-- 2.5 -->
      <g transform="translate(7.2 100.157401)scale(0.1 -0.1)">
       <use xlink:href="#DejaVuSans-50"/>
       <use x="63.623047" xlink:href="#DejaVuSans-46"/>
       <use x="95.410156" xlink:href="#DejaVuSans-53"/>
      </g>
     </g>
    </g>
    <g id="ytick_7">
     <g id="line2d_14">
      <g>
       <use style="stroke:#000000;stroke-width:0.8;" x="30.103125" xlink:href="#m55d5030a25" y="30.467273"/>
      </g>
     </g>
     <g id="text_14">
      <!-- 3.0 -->
      <g transform="translate(7.2 34.266491)scale(0.1 -0.1)">
       <use xlink:href="#DejaVuSans-51"/>
       <use x="63.623047" xlink:href="#DejaVuSans-46"/>
       <use x="95.410156" xlink:href="#DejaVuSans-48"/>
      </g>
     </g>
    </g>
   </g>
   <g id="line2d_15">
    <path clip-path="url(#p6284a3befa)" d="M 55.466761 419.562859 
L 60.590728 419.191984 
L 65.714695 418.800331 
L 70.838662 418.386883 
L 75.962629 417.950595 
L 81.086596 417.490389 
L 86.210563 417.005159 
L 91.33453 416.493774 
L 96.458497 415.955078 
L 101.582464 415.387891 
L 106.706431 414.791021 
L 111.830398 414.163257 
L 116.954365 413.503382 
L 122.078332 412.810175 
L 127.202299 412.082416 
L 132.326265 411.318894 
L 137.450232 410.518415 
L 142.574199 409.679807 
L 147.698166 408.801932 
L 152.822133 407.883693 
L 157.9461 406.924046 
L 163.070067 405.922007 
L 168.194034 404.876668 
L 173.318001 403.787206 
L 178.441968 402.652897 
L 183.565935 401.473126 
L 188.689902 400.247402 
L 193.813869 398.975369 
L 198.937836 397.656822 
L 204.061803 396.291716 
L 209.18577 394.880182 
L 214.309737 393.422533 
L 219.433704 391.91928 
L 224.55767 390.371138 
L 229.681637 388.779034 
L 234.805604 387.144117 
L 239.929571 385.467757 
L 245.053538 383.751552 
L 250.177505 381.997325 
L 255.301472 380.207124 
L 260.425439 378.383218 
L 265.549406 376.528084 
L 270.673373 374.644405 
L 275.79734 372.735052 
L 280.921307 370.80307 
L 286.045274 368.85166 
L 291.169241 366.884161 
L 296.293208 364.904026 
L 301.417175 362.914799 
L 306.541142 360.920089 
L 311.665108 358.923547 
L 316.789075 356.928838 
L 321.913042 354.93961 
L 327.037009 352.959475 
L 332.160976 350.991976 
L 337.284943 349.040566 
L 342.40891 347.108584 
L 347.532877 345.199231 
L 352.656844 343.315552 
L 357.780811 341.460419 
L 362.904778 339.636512 
L 368.028745 337.846311 
L 373.152712 336.092085 
L 378.276679 334.375879 
L 383.400646 332.699519 
L 388.524613 331.064602 
L 393.64858 329.472499 
L 398.772546 327.924356 
L 403.896513 326.421103 
L 409.02048 324.963454 
L 414.144447 323.55192 
L 419.268414 322.186815 
L 424.392381 320.868268 
L 429.516348 319.596235 
L 434.640315 318.37051 
L 439.764282 317.190739 
L 444.888249 316.05643 
L 450.012216 314.966969 
L 455.136183 313.92163 
L 460.26015 312.919591 
L 465.384117 311.959943 
L 470.508084 311.041704 
L 475.632051 310.163829 
L 480.756018 309.325221 
L 485.879985 308.524742 
L 491.003951 307.76122 
L 496.127918 307.033461 
L 501.251885 306.340254 
L 506.375852 305.680379 
L 511.499819 305.052615 
L 516.623786 304.455745 
L 521.747753 303.888559 
L 526.87172 303.349862 
L 531.995687 302.838477 
L 537.119654 302.353248 
L 542.243621 301.893042 
L 547.367588 301.456753 
L 552.491555 301.043306 
L 557.615522 300.651652 
L 562.739489 300.280777 
" style="fill:none;stroke:#0000ff;stroke-linecap:square;stroke-width:1.5;"/>
   </g>
   <g id="line2d_16">
    <path clip-path="url(#p6284a3befa)" d="M 55.466761 425.812727 
L 60.590728 425.812727 
L 65.714695 425.812727 
L 70.838662 425.812727 
L 75.962629 425.812727 
L 81.086596 425.812727 
L 86.210563 425.812727 
L 91.33453 425.812727 
L 96.458497 425.812727 
L 101.582464 425.812727 
L 106.706431 425.812727 
L 111.830398 425.812727 
L 116.954365 425.812727 
L 122.078332 425.812727 
L 127.202299 425.812727 
L 132.326265 425.812727 
L 137.450232 425.812727 
L 142.574199 425.812727 
L 147.698166 425.812727 
L 152.822133 425.812727 
L 157.9461 425.812727 
L 163.070067 425.812727 
L 168.194034 425.812727 
L 173.318001 425.812727 
L 178.441968 425.812727 
L 183.565935 425.812727 
L 188.689902 425.812727 
L 193.813869 425.812727 
L 198.937836 425.812727 
L 204.061803 425.812727 
L 209.18577 425.812727 
L 214.309737 425.812727 
L 219.433704 425.812727 
L 224.55767 425.812727 
L 229.681637 425.812727 
L 234.805604 425.812727 
L 239.929571 425.812727 
L 245.053538 425.812727 
L 250.177505 425.812727 
L 255.301472 425.812727 
L 260.425439 425.812727 
L 265.549406 425.812727 
L 270.673373 425.812727 
L 275.79734 425.812727 
L 280.921307 425.812727 
L 286.045274 425.812727 
L 291.169241 425.812727 
L 296.293208 425.812727 
L 301.417175 425.812727 
L 306.541142 425.812727 
L 311.665108 421.819339 
L 316.789075 413.832562 
L 321.913042 405.845785 
L 327.037009 397.859008 
L 332.160976 389.872231 
L 337.284943 381.885455 
L 342.40891 373.898678 
L 347.532877 365.911901 
L 352.656844 357.925124 
L 357.780811 349.938347 
L 362.904778 341.95157 
L 368.028745 333.964793 
L 373.152712 325.978017 
L 378.276679 317.99124 
L 383.400646 310.004463 
L 388.524613 302.017686 
L 393.64858 294.030909 
L 398.772546 286.044132 
L 403.896513 278.057355 
L 409.02048 270.070579 
L 414.144447 262.083802 
L 419.268414 254.097025 
L 424.392381 246.110248 
L 429.516348 238.123471 
L 434.640315 230.136694 
L 439.764282 222.149917 
L 444.888249 214.16314 
L 450.012216 206.176364 
L 455.136183 198.189587 
L 460.26015 190.20281 
L 465.384117 182.216033 
L 470.508084 174.229256 
L 475.632051 166.242479 
L 480.756018 158.255702 
L 485.879985 150.268926 
L 491.003951 142.282149 
L 496.127918 134.295372 
L 501.251885 126.308595 
L 506.375852 118.321818 
L 511.499819 110.335041 
L 516.623786 102.348264 
L 521.747753 94.361488 
L 526.87172 86.374711 
L 531.995687 78.387934 
L 537.119654 70.401157 
L 542.243621 62.41438 
L 547.367588 54.427603 
L 552.491555 46.440826 
L 557.615522 38.45405 
L 562.739489 30.467273 
" style="fill:none;stroke:#ff0000;stroke-linecap:square;stroke-width:1.5;"/>
   </g>
   <g id="patch_3">
    <path d="M 30.103125 445.58 
L 30.103125 10.7 
" style="fill:none;stroke:#000000;stroke-linecap:square;stroke-linejoin:miter;stroke-width:0.8;"/>
   </g>
   <g id="patch_4">
    <path d="M 588.103125 445.58 
L 588.103125 10.7 
" style="fill:none;stroke:#000000;stroke-linecap:square;stroke-linejoin:miter;stroke-width:0.8;"/>
   </g>
   <g id="patch_5">
    <path d="M 30.103125 445.58 
L 588.103125 445.58 
" style="fill:none;stroke:#000000;stroke-linecap:square;stroke-linejoin:miter;stroke-width:0.8;"/>
   </g>
   <g id="patch_6">
    <path d="M 30.103125 10.7 
L 588.103125 10.7 
" style="fill:none;stroke:#000000;stroke-linecap:square;stroke-linejoin:miter;stroke-width:0.8;"/>
   </g>
  </g>
 </g>
 <defs>
  <clipPath id="p6284a3befa">
   <rect height="434.88" width="558" x="30.103125" y="10.7"/>
  </clipPath>
 </defs>
</svg>
