<?xml version="1.0" encoding="utf-8" standalone="no"?>
<!DOCTYPE svg PUBLIC "-//W3C//DTD SVG 1.1//EN"
  "http://www.w3.org/Graphics/SVG/1.1/DTD/svg11.dtd">
<!-- Created with matplotlib (https://matplotlib.org/) -->
<svg height="262.19625pt" version="1.1" viewBox="0 0 402.303125 262.19625" width="402.303125pt" xmlns="http://www.w3.org/2000/svg" xmlns:xlink="http://www.w3.org/1999/xlink">
 <defs>
  <style type="text/css">
*{stroke-linecap:butt;stroke-linejoin:round;}
  </style>
 </defs>
 <g id="figure_1">
  <g id="patch_1">
   <path d="M 0 262.19625 
L 402.303125 262.19625 
L 402.303125 0 
L 0 0 
z
" style="fill:none;"/>
  </g>
  <g id="axes_1">
   <g id="patch_2">
    <path d="M 60.303125 224.64 
L 395.103125 224.64 
L 395.103125 7.2 
L 60.303125 7.2 
z
" style="fill:#ffffff;"/>
   </g>
   <g id="matplotlib.axis_1">
    <g id="xtick_1">
     <g id="line2d_1">
      <defs>
       <path d="M 0 0 
L 0 3.5 
" id="m24669462ee" style="stroke:#000000;stroke-width:0.8;"/>
      </defs>
      <g>
       <use style="stroke:#000000;stroke-width:0.8;" x="60.303125" xlink:href="#m24669462ee" y="224.64"/>
      </g>
     </g>
     <g id="text_1">
      <!-- 2015-05-04 09:31:00 -->
      <defs>
       <path d="M 19.1875 8.296875 
L 53.609375 8.296875 
L 53.609375 0 
L 7.328125 0 
L 7.328125 8.296875 
Q 12.9375 14.109375 22.625 23.890625 
Q 32.328125 33.6875 34.8125 36.53125 
Q 39.546875 41.84375 41.421875 45.53125 
Q 43.3125 49.21875 43.3125 52.78125 
Q 43.3125 58.59375 39.234375 62.25 
Q 35.15625 65.921875 28.609375 65.921875 
Q 23.96875 65.921875 18.8125 64.3125 
Q 13.671875 62.703125 7.8125 59.421875 
L 7.8125 69.390625 
Q 13.765625 71.78125 18.9375 73 
Q 24.125 74.21875 28.421875 74.21875 
Q 39.75 74.21875 46.484375 68.546875 
Q 53.21875 62.890625 53.21875 53.421875 
Q 53.21875 48.921875 51.53125 44.890625 
Q 49.859375 40.875 45.40625 35.40625 
Q 44.1875 33.984375 37.640625 27.21875 
Q 31.109375 20.453125 19.1875 8.296875 
z
" id="DejaVuSans-50"/>
       <path d="M 31.78125 66.40625 
Q 24.171875 66.40625 20.328125 58.90625 
Q 16.5 51.421875 16.5 36.375 
Q 16.5 21.390625 20.328125 13.890625 
Q 24.171875 6.390625 31.78125 6.390625 
Q 39.453125 6.390625 43.28125 13.890625 
Q 47.125 21.390625 47.125 36.375 
Q 47.125 51.421875 43.28125 58.90625 
Q 39.453125 66.40625 31.78125 66.40625 
z
M 31.78125 74.21875 
Q 44.046875 74.21875 50.515625 64.515625 
Q 56.984375 54.828125 56.984375 36.375 
Q 56.984375 17.96875 50.515625 8.265625 
Q 44.046875 -1.421875 31.78125 -1.421875 
Q 19.53125 -1.421875 13.0625 8.265625 
Q 6.59375 17.96875 6.59375 36.375 
Q 6.59375 54.828125 13.0625 64.515625 
Q 19.53125 74.21875 31.78125 74.21875 
z
" id="DejaVuSans-48"/>
       <path d="M 12.40625 8.296875 
L 28.515625 8.296875 
L 28.515625 63.921875 
L 10.984375 60.40625 
L 10.984375 69.390625 
L 28.421875 72.90625 
L 38.28125 72.90625 
L 38.28125 8.296875 
L 54.390625 8.296875 
L 54.390625 0 
L 12.40625 0 
z
" id="DejaVuSans-49"/>
       <path d="M 10.796875 72.90625 
L 49.515625 72.90625 
L 49.515625 64.59375 
L 19.828125 64.59375 
L 19.828125 46.734375 
Q 21.96875 47.46875 24.109375 47.828125 
Q 26.265625 48.1875 28.421875 48.1875 
Q 40.625 48.1875 47.75 41.5 
Q 54.890625 34.8125 54.890625 23.390625 
Q 54.890625 11.625 47.5625 5.09375 
Q 40.234375 -1.421875 26.90625 -1.421875 
Q 22.3125 -1.421875 17.546875 -0.640625 
Q 12.796875 0.140625 7.71875 1.703125 
L 7.71875 11.625 
Q 12.109375 9.234375 16.796875 8.0625 
Q 21.484375 6.890625 26.703125 6.890625 
Q 35.15625 6.890625 40.078125 11.328125 
Q 45.015625 15.765625 45.015625 23.390625 
Q 45.015625 31 40.078125 35.4375 
Q 35.15625 39.890625 26.703125 39.890625 
Q 22.75 39.890625 18.8125 39.015625 
Q 14.890625 38.140625 10.796875 36.28125 
z
" id="DejaVuSans-53"/>
       <path d="M 4.890625 31.390625 
L 31.203125 31.390625 
L 31.203125 23.390625 
L 4.890625 23.390625 
z
" id="DejaVuSans-45"/>
       <path d="M 37.796875 64.3125 
L 12.890625 25.390625 
L 37.796875 25.390625 
z
M 35.203125 72.90625 
L 47.609375 72.90625 
L 47.609375 25.390625 
L 58.015625 25.390625 
L 58.015625 17.1875 
L 47.609375 17.1875 
L 47.609375 0 
L 37.796875 0 
L 37.796875 17.1875 
L 4.890625 17.1875 
L 4.890625 26.703125 
z
" id="DejaVuSans-52"/>
       <path id="DejaVuSans-32"/>
       <path d="M 10.984375 1.515625 
L 10.984375 10.5 
Q 14.703125 8.734375 18.5 7.8125 
Q 22.3125 6.890625 25.984375 6.890625 
Q 35.75 6.890625 40.890625 13.453125 
Q 46.046875 20.015625 46.78125 33.40625 
Q 43.953125 29.203125 39.59375 26.953125 
Q 35.25 24.703125 29.984375 24.703125 
Q 19.046875 24.703125 12.671875 31.3125 
Q 6.296875 37.9375 6.296875 49.421875 
Q 6.296875 60.640625 12.9375 67.421875 
Q 19.578125 74.21875 30.609375 74.21875 
Q 43.265625 74.21875 49.921875 64.515625 
Q 56.59375 54.828125 56.59375 36.375 
Q 56.59375 19.140625 48.40625 8.859375 
Q 40.234375 -1.421875 26.421875 -1.421875 
Q 22.703125 -1.421875 18.890625 -0.6875 
Q 15.09375 0.046875 10.984375 1.515625 
z
M 30.609375 32.421875 
Q 37.25 32.421875 41.125 36.953125 
Q 45.015625 41.5 45.015625 49.421875 
Q 45.015625 57.28125 41.125 61.84375 
Q 37.25 66.40625 30.609375 66.40625 
Q 23.96875 66.40625 20.09375 61.84375 
Q 16.21875 57.28125 16.21875 49.421875 
Q 16.21875 41.5 20.09375 36.953125 
Q 23.96875 32.421875 30.609375 32.421875 
z
" id="DejaVuSans-57"/>
       <path d="M 11.71875 12.40625 
L 22.015625 12.40625 
L 22.015625 0 
L 11.71875 0 
z
M 11.71875 51.703125 
L 22.015625 51.703125 
L 22.015625 39.3125 
L 11.71875 39.3125 
z
" id="DejaVuSans-58"/>
       <path d="M 40.578125 39.3125 
Q 47.65625 37.796875 51.625 33 
Q 55.609375 28.21875 55.609375 21.1875 
Q 55.609375 10.40625 48.1875 4.484375 
Q 40.765625 -1.421875 27.09375 -1.421875 
Q 22.515625 -1.421875 17.65625 -0.515625 
Q 12.796875 0.390625 7.625 2.203125 
L 7.625 11.71875 
Q 11.71875 9.328125 16.59375 8.109375 
Q 21.484375 6.890625 26.8125 6.890625 
Q 36.078125 6.890625 40.9375 10.546875 
Q 45.796875 14.203125 45.796875 21.1875 
Q 45.796875 27.640625 41.28125 31.265625 
Q 36.765625 34.90625 28.71875 34.90625 
L 20.21875 34.90625 
L 20.21875 43.015625 
L 29.109375 43.015625 
Q 36.375 43.015625 40.234375 45.921875 
Q 44.09375 48.828125 44.09375 54.296875 
Q 44.09375 59.90625 40.109375 62.90625 
Q 36.140625 65.921875 28.71875 65.921875 
Q 24.65625 65.921875 20.015625 65.03125 
Q 15.375 64.15625 9.8125 62.3125 
L 9.8125 71.09375 
Q 15.4375 72.65625 20.34375 73.4375 
Q 25.25 74.21875 29.59375 74.21875 
Q 40.828125 74.21875 47.359375 69.109375 
Q 53.90625 64.015625 53.90625 55.328125 
Q 53.90625 49.265625 50.4375 45.09375 
Q 46.96875 40.921875 40.578125 39.3125 
z
" id="DejaVuSans-51"/>
      </defs>
      <g transform="translate(7.2 239.238437)scale(0.1 -0.1)">
       <use xlink:href="#DejaVuSans-50"/>
       <use x="63.623047" xlink:href="#DejaVuSans-48"/>
       <use x="127.246094" xlink:href="#DejaVuSans-49"/>
       <use x="190.869141" xlink:href="#DejaVuSans-53"/>
       <use x="254.492188" xlink:href="#DejaVuSans-45"/>
       <use x="290.576172" xlink:href="#DejaVuSans-48"/>
       <use x="354.199219" xlink:href="#DejaVuSans-53"/>
       <use x="417.822266" xlink:href="#DejaVuSans-45"/>
       <use x="453.90625" xlink:href="#DejaVuSans-48"/>
       <use x="517.529297" xlink:href="#DejaVuSans-52"/>
       <use x="581.152344" xlink:href="#DejaVuSans-32"/>
       <use x="612.939453" xlink:href="#DejaVuSans-48"/>
       <use x="676.5625" xlink:href="#DejaVuSans-57"/>
       <use x="740.185547" xlink:href="#DejaVuSans-58"/>
       <use x="773.876953" xlink:href="#DejaVuSans-51"/>
       <use x="837.5" xlink:href="#DejaVuSans-49"/>
       <use x="901.123047" xlink:href="#DejaVuSans-58"/>
       <use x="934.814453" xlink:href="#DejaVuSans-48"/>
       <use x="998.4375" xlink:href="#DejaVuSans-48"/>
      </g>
     </g>
    </g>
    <g id="xtick_2">
     <g id="line2d_2">
      <g>
       <use style="stroke:#000000;stroke-width:0.8;" x="130.067659" xlink:href="#m24669462ee" y="224.64"/>
      </g>
     </g>
     <g id="text_2">
      <!-- 2015-05-08 10:11:00 -->
      <defs>
       <path d="M 31.78125 34.625 
Q 24.75 34.625 20.71875 30.859375 
Q 16.703125 27.09375 16.703125 20.515625 
Q 16.703125 13.921875 20.71875 10.15625 
Q 24.75 6.390625 31.78125 6.390625 
Q 38.8125 6.390625 42.859375 10.171875 
Q 46.921875 13.96875 46.921875 20.515625 
Q 46.921875 27.09375 42.890625 30.859375 
Q 38.875 34.625 31.78125 34.625 
z
M 21.921875 38.8125 
Q 15.578125 40.375 12.03125 44.71875 
Q 8.5 49.078125 8.5 55.328125 
Q 8.5 64.0625 14.71875 69.140625 
Q 20.953125 74.21875 31.78125 74.21875 
Q 42.671875 74.21875 48.875 69.140625 
Q 55.078125 64.0625 55.078125 55.328125 
Q 55.078125 49.078125 51.53125 44.71875 
Q 48 40.375 41.703125 38.8125 
Q 48.828125 37.15625 52.796875 32.3125 
Q 56.78125 27.484375 56.78125 20.515625 
Q 56.78125 9.90625 50.3125 4.234375 
Q 43.84375 -1.421875 31.78125 -1.421875 
Q 19.734375 -1.421875 13.25 4.234375 
Q 6.78125 9.90625 6.78125 20.515625 
Q 6.78125 27.484375 10.78125 32.3125 
Q 14.796875 37.15625 21.921875 38.8125 
z
M 18.3125 54.390625 
Q 18.3125 48.734375 21.84375 45.5625 
Q 25.390625 42.390625 31.78125 42.390625 
Q 38.140625 42.390625 41.71875 45.5625 
Q 45.3125 48.734375 45.3125 54.390625 
Q 45.3125 60.0625 41.71875 63.234375 
Q 38.140625 66.40625 31.78125 66.40625 
Q 25.390625 66.40625 21.84375 63.234375 
Q 18.3125 60.0625 18.3125 54.390625 
z
" id="DejaVuSans-56"/>
      </defs>
      <g transform="translate(76.964534 239.238437)scale(0.1 -0.1)">
       <use xlink:href="#DejaVuSans-50"/>
       <use x="63.623047" xlink:href="#DejaVuSans-48"/>
       <use x="127.246094" xlink:href="#DejaVuSans-49"/>
       <use x="190.869141" xlink:href="#DejaVuSans-53"/>
       <use x="254.492188" xlink:href="#DejaVuSans-45"/>
       <use x="290.576172" xlink:href="#DejaVuSans-48"/>
       <use x="354.199219" xlink:href="#DejaVuSans-53"/>
       <use x="417.822266" xlink:href="#DejaVuSans-45"/>
       <use x="453.90625" xlink:href="#DejaVuSans-48"/>
       <use x="517.529297" xlink:href="#DejaVuSans-56"/>
       <use x="581.152344" xlink:href="#DejaVuSans-32"/>
       <use x="612.939453" xlink:href="#DejaVuSans-49"/>
       <use x="676.5625" xlink:href="#DejaVuSans-48"/>
       <use x="740.185547" xlink:href="#DejaVuSans-58"/>
       <use x="773.876953" xlink:href="#DejaVuSans-49"/>
       <use x="837.5" xlink:href="#DejaVuSans-49"/>
       <use x="901.123047" xlink:href="#DejaVuSans-58"/>
       <use x="934.814453" xlink:href="#DejaVuSans-48"/>
       <use x="998.4375" xlink:href="#DejaVuSans-48"/>
      </g>
     </g>
    </g>
    <g id="xtick_3">
     <g id="line2d_3">
      <g>
       <use style="stroke:#000000;stroke-width:0.8;" x="199.832194" xlink:href="#m24669462ee" y="224.64"/>
      </g>
     </g>
     <g id="text_3">
      <!-- 2015-05-14 10:51:00 -->
      <g transform="translate(146.729069 239.238437)scale(0.1 -0.1)">
       <use xlink:href="#DejaVuSans-50"/>
       <use x="63.623047" xlink:href="#DejaVuSans-48"/>
       <use x="127.246094" xlink:href="#DejaVuSans-49"/>
       <use x="190.869141" xlink:href="#DejaVuSans-53"/>
       <use x="254.492188" xlink:href="#DejaVuSans-45"/>
       <use x="290.576172" xlink:href="#DejaVuSans-48"/>
       <use x="354.199219" xlink:href="#DejaVuSans-53"/>
       <use x="417.822266" xlink:href="#DejaVuSans-45"/>
       <use x="453.90625" xlink:href="#DejaVuSans-49"/>
       <use x="517.529297" xlink:href="#DejaVuSans-52"/>
       <use x="581.152344" xlink:href="#DejaVuSans-32"/>
       <use x="612.939453" xlink:href="#DejaVuSans-49"/>
       <use x="676.5625" xlink:href="#DejaVuSans-48"/>
       <use x="740.185547" xlink:href="#DejaVuSans-58"/>
       <use x="773.876953" xlink:href="#DejaVuSans-53"/>
       <use x="837.5" xlink:href="#DejaVuSans-49"/>
       <use x="901.123047" xlink:href="#DejaVuSans-58"/>
       <use x="934.814453" xlink:href="#DejaVuSans-48"/>
       <use x="998.4375" xlink:href="#DejaVuSans-48"/>
      </g>
     </g>
    </g>
    <g id="xtick_4">
     <g id="line2d_4">
      <g>
       <use style="stroke:#000000;stroke-width:0.8;" x="269.596728" xlink:href="#m24669462ee" y="224.64"/>
      </g>
     </g>
     <g id="text_4">
      <!-- 2015-05-20 13:01:00 -->
      <g transform="translate(216.493603 239.238437)scale(0.1 -0.1)">
       <use xlink:href="#DejaVuSans-50"/>
       <use x="63.623047" xlink:href="#DejaVuSans-48"/>
       <use x="127.246094" xlink:href="#DejaVuSans-49"/>
       <use x="190.869141" xlink:href="#DejaVuSans-53"/>
       <use x="254.492188" xlink:href="#DejaVuSans-45"/>
       <use x="290.576172" xlink:href="#DejaVuSans-48"/>
       <use x="354.199219" xlink:href="#DejaVuSans-53"/>
       <use x="417.822266" xlink:href="#DejaVuSans-45"/>
       <use x="453.90625" xlink:href="#DejaVuSans-50"/>
       <use x="517.529297" xlink:href="#DejaVuSans-48"/>
       <use x="581.152344" xlink:href="#DejaVuSans-32"/>
       <use x="612.939453" xlink:href="#DejaVuSans-49"/>
       <use x="676.5625" xlink:href="#DejaVuSans-51"/>
       <use x="740.185547" xlink:href="#DejaVuSans-58"/>
       <use x="773.876953" xlink:href="#DejaVuSans-48"/>
       <use x="837.5" xlink:href="#DejaVuSans-49"/>
       <use x="901.123047" xlink:href="#DejaVuSans-58"/>
       <use x="934.814453" xlink:href="#DejaVuSans-48"/>
       <use x="998.4375" xlink:href="#DejaVuSans-48"/>
      </g>
     </g>
    </g>
    <g id="xtick_5">
     <g id="line2d_5">
      <g>
       <use style="stroke:#000000;stroke-width:0.8;" x="339.361262" xlink:href="#m24669462ee" y="224.64"/>
      </g>
     </g>
     <g id="text_5">
      <!-- 2015-05-26 13:41:00 -->
      <defs>
       <path d="M 33.015625 40.375 
Q 26.375 40.375 22.484375 35.828125 
Q 18.609375 31.296875 18.609375 23.390625 
Q 18.609375 15.53125 22.484375 10.953125 
Q 26.375 6.390625 33.015625 6.390625 
Q 39.65625 6.390625 43.53125 10.953125 
Q 47.40625 15.53125 47.40625 23.390625 
Q 47.40625 31.296875 43.53125 35.828125 
Q 39.65625 40.375 33.015625 40.375 
z
M 52.59375 71.296875 
L 52.59375 62.3125 
Q 48.875 64.0625 45.09375 64.984375 
Q 41.3125 65.921875 37.59375 65.921875 
Q 27.828125 65.921875 22.671875 59.328125 
Q 17.53125 52.734375 16.796875 39.40625 
Q 19.671875 43.65625 24.015625 45.921875 
Q 28.375 48.1875 33.59375 48.1875 
Q 44.578125 48.1875 50.953125 41.515625 
Q 57.328125 34.859375 57.328125 23.390625 
Q 57.328125 12.15625 50.6875 5.359375 
Q 44.046875 -1.421875 33.015625 -1.421875 
Q 20.359375 -1.421875 13.671875 8.265625 
Q 6.984375 17.96875 6.984375 36.375 
Q 6.984375 53.65625 15.1875 63.9375 
Q 23.390625 74.21875 37.203125 74.21875 
Q 40.921875 74.21875 44.703125 73.484375 
Q 48.484375 72.75 52.59375 71.296875 
z
" id="DejaVuSans-54"/>
      </defs>
      <g transform="translate(286.258137 239.238437)scale(0.1 -0.1)">
       <use xlink:href="#DejaVuSans-50"/>
       <use x="63.623047" xlink:href="#DejaVuSans-48"/>
       <use x="127.246094" xlink:href="#DejaVuSans-49"/>
       <use x="190.869141" xlink:href="#DejaVuSans-53"/>
       <use x="254.492188" xlink:href="#DejaVuSans-45"/>
       <use x="290.576172" xlink:href="#DejaVuSans-48"/>
       <use x="354.199219" xlink:href="#DejaVuSans-53"/>
       <use x="417.822266" xlink:href="#DejaVuSans-45"/>
       <use x="453.90625" xlink:href="#DejaVuSans-50"/>
       <use x="517.529297" xlink:href="#DejaVuSans-54"/>
       <use x="581.152344" xlink:href="#DejaVuSans-32"/>
       <use x="612.939453" xlink:href="#DejaVuSans-49"/>
       <use x="676.5625" xlink:href="#DejaVuSans-51"/>
       <use x="740.185547" xlink:href="#DejaVuSans-58"/>
       <use x="773.876953" xlink:href="#DejaVuSans-52"/>
       <use x="837.5" xlink:href="#DejaVuSans-49"/>
       <use x="901.123047" xlink:href="#DejaVuSans-58"/>
       <use x="934.814453" xlink:href="#DejaVuSans-48"/>
       <use x="998.4375" xlink:href="#DejaVuSans-48"/>
      </g>
     </g>
    </g>
    <g id="text_6">
     <!-- timestamp -->
     <defs>
      <path d="M 18.3125 70.21875 
L 18.3125 54.6875 
L 36.8125 54.6875 
L 36.8125 47.703125 
L 18.3125 47.703125 
L 18.3125 18.015625 
Q 18.3125 11.328125 20.140625 9.421875 
Q 21.96875 7.515625 27.59375 7.515625 
L 36.8125 7.515625 
L 36.8125 0 
L 27.59375 0 
Q 17.1875 0 13.234375 3.875 
Q 9.28125 7.765625 9.28125 18.015625 
L 9.28125 47.703125 
L 2.6875 47.703125 
L 2.6875 54.6875 
L 9.28125 54.6875 
L 9.28125 70.21875 
z
" id="DejaVuSans-116"/>
      <path d="M 9.421875 54.6875 
L 18.40625 54.6875 
L 18.40625 0 
L 9.421875 0 
z
M 9.421875 75.984375 
L 18.40625 75.984375 
L 18.40625 64.59375 
L 9.421875 64.59375 
z
" id="DejaVuSans-105"/>
      <path d="M 52 44.1875 
Q 55.375 50.25 60.0625 53.125 
Q 64.75 56 71.09375 56 
Q 79.640625 56 84.28125 50.015625 
Q 88.921875 44.046875 88.921875 33.015625 
L 88.921875 0 
L 79.890625 0 
L 79.890625 32.71875 
Q 79.890625 40.578125 77.09375 44.375 
Q 74.3125 48.1875 68.609375 48.1875 
Q 61.625 48.1875 57.5625 43.546875 
Q 53.515625 38.921875 53.515625 30.90625 
L 53.515625 0 
L 44.484375 0 
L 44.484375 32.71875 
Q 44.484375 40.625 41.703125 44.40625 
Q 38.921875 48.1875 33.109375 48.1875 
Q 26.21875 48.1875 22.15625 43.53125 
Q 18.109375 38.875 18.109375 30.90625 
L 18.109375 0 
L 9.078125 0 
L 9.078125 54.6875 
L 18.109375 54.6875 
L 18.109375 46.1875 
Q 21.1875 51.21875 25.484375 53.609375 
Q 29.78125 56 35.6875 56 
Q 41.65625 56 45.828125 52.96875 
Q 50 49.953125 52 44.1875 
z
" id="DejaVuSans-109"/>
      <path d="M 56.203125 29.59375 
L 56.203125 25.203125 
L 14.890625 25.203125 
Q 15.484375 15.921875 20.484375 11.0625 
Q 25.484375 6.203125 34.421875 6.203125 
Q 39.59375 6.203125 44.453125 7.46875 
Q 49.3125 8.734375 54.109375 11.28125 
L 54.109375 2.78125 
Q 49.265625 0.734375 44.1875 -0.34375 
Q 39.109375 -1.421875 33.890625 -1.421875 
Q 20.796875 -1.421875 13.15625 6.1875 
Q 5.515625 13.8125 5.515625 26.8125 
Q 5.515625 40.234375 12.765625 48.109375 
Q 20.015625 56 32.328125 56 
Q 43.359375 56 49.78125 48.890625 
Q 56.203125 41.796875 56.203125 29.59375 
z
M 47.21875 32.234375 
Q 47.125 39.59375 43.09375 43.984375 
Q 39.0625 48.390625 32.421875 48.390625 
Q 24.90625 48.390625 20.390625 44.140625 
Q 15.875 39.890625 15.1875 32.171875 
z
" id="DejaVuSans-101"/>
      <path d="M 44.28125 53.078125 
L 44.28125 44.578125 
Q 40.484375 46.53125 36.375 47.5 
Q 32.28125 48.484375 27.875 48.484375 
Q 21.1875 48.484375 17.84375 46.4375 
Q 14.5 44.390625 14.5 40.28125 
Q 14.5 37.15625 16.890625 35.375 
Q 19.28125 33.59375 26.515625 31.984375 
L 29.59375 31.296875 
Q 39.15625 29.25 43.1875 25.515625 
Q 47.21875 21.78125 47.21875 15.09375 
Q 47.21875 7.46875 41.1875 3.015625 
Q 35.15625 -1.421875 24.609375 -1.421875 
Q 20.21875 -1.421875 15.453125 -0.5625 
Q 10.6875 0.296875 5.421875 2 
L 5.421875 11.28125 
Q 10.40625 8.6875 15.234375 7.390625 
Q 20.0625 6.109375 24.8125 6.109375 
Q 31.15625 6.109375 34.5625 8.28125 
Q 37.984375 10.453125 37.984375 14.40625 
Q 37.984375 18.0625 35.515625 20.015625 
Q 33.0625 21.96875 24.703125 23.78125 
L 21.578125 24.515625 
Q 13.234375 26.265625 9.515625 29.90625 
Q 5.8125 33.546875 5.8125 39.890625 
Q 5.8125 47.609375 11.28125 51.796875 
Q 16.75 56 26.8125 56 
Q 31.78125 56 36.171875 55.265625 
Q 40.578125 54.546875 44.28125 53.078125 
z
" id="DejaVuSans-115"/>
      <path d="M 34.28125 27.484375 
Q 23.390625 27.484375 19.1875 25 
Q 14.984375 22.515625 14.984375 16.5 
Q 14.984375 11.71875 18.140625 8.90625 
Q 21.296875 6.109375 26.703125 6.109375 
Q 34.1875 6.109375 38.703125 11.40625 
Q 43.21875 16.703125 43.21875 25.484375 
L 43.21875 27.484375 
z
M 52.203125 31.203125 
L 52.203125 0 
L 43.21875 0 
L 43.21875 8.296875 
Q 40.140625 3.328125 35.546875 0.953125 
Q 30.953125 -1.421875 24.3125 -1.421875 
Q 15.921875 -1.421875 10.953125 3.296875 
Q 6 8.015625 6 15.921875 
Q 6 25.140625 12.171875 29.828125 
Q 18.359375 34.515625 30.609375 34.515625 
L 43.21875 34.515625 
L 43.21875 35.40625 
Q 43.21875 41.609375 39.140625 45 
Q 35.0625 48.390625 27.6875 48.390625 
Q 23 48.390625 18.546875 47.265625 
Q 14.109375 46.140625 10.015625 43.890625 
L 10.015625 52.203125 
Q 14.9375 54.109375 19.578125 55.046875 
Q 24.21875 56 28.609375 56 
Q 40.484375 56 46.34375 49.84375 
Q 52.203125 43.703125 52.203125 31.203125 
z
" id="DejaVuSans-97"/>
      <path d="M 18.109375 8.203125 
L 18.109375 -20.796875 
L 9.078125 -20.796875 
L 9.078125 54.6875 
L 18.109375 54.6875 
L 18.109375 46.390625 
Q 20.953125 51.265625 25.265625 53.625 
Q 29.59375 56 35.59375 56 
Q 45.5625 56 51.78125 48.09375 
Q 58.015625 40.1875 58.015625 27.296875 
Q 58.015625 14.40625 51.78125 6.484375 
Q 45.5625 -1.421875 35.59375 -1.421875 
Q 29.59375 -1.421875 25.265625 0.953125 
Q 20.953125 3.328125 18.109375 8.203125 
z
M 48.6875 27.296875 
Q 48.6875 37.203125 44.609375 42.84375 
Q 40.53125 48.484375 33.40625 48.484375 
Q 26.265625 48.484375 22.1875 42.84375 
Q 18.109375 37.203125 18.109375 27.296875 
Q 18.109375 17.390625 22.1875 11.75 
Q 26.265625 6.109375 33.40625 6.109375 
Q 40.53125 6.109375 44.609375 11.75 
Q 48.6875 17.390625 48.6875 27.296875 
z
" id="DejaVuSans-112"/>
     </defs>
     <g transform="translate(200.733594 252.916562)scale(0.1 -0.1)">
      <use xlink:href="#DejaVuSans-116"/>
      <use x="39.208984" xlink:href="#DejaVuSans-105"/>
      <use x="66.992188" xlink:href="#DejaVuSans-109"/>
      <use x="164.404297" xlink:href="#DejaVuSans-101"/>
      <use x="225.927734" xlink:href="#DejaVuSans-115"/>
      <use x="278.027344" xlink:href="#DejaVuSans-116"/>
      <use x="317.236328" xlink:href="#DejaVuSans-97"/>
      <use x="378.515625" xlink:href="#DejaVuSans-109"/>
      <use x="475.927734" xlink:href="#DejaVuSans-112"/>
     </g>
    </g>
   </g>
   <g id="matplotlib.axis_2">
    <g id="ytick_1">
     <g id="line2d_6">
      <defs>
       <path d="M 0 0 
L -3.5 0 
" id="m3a05046837" style="stroke:#000000;stroke-width:0.8;"/>
      </defs>
      <g>
       <use style="stroke:#000000;stroke-width:0.8;" x="60.303125" xlink:href="#m3a05046837" y="202.998349"/>
      </g>
     </g>
     <g id="text_7">
      <!-- 4500 -->
      <g transform="translate(27.853125 206.797568)scale(0.1 -0.1)">
       <use xlink:href="#DejaVuSans-52"/>
       <use x="63.623047" xlink:href="#DejaVuSans-53"/>
       <use x="127.246094" xlink:href="#DejaVuSans-48"/>
       <use x="190.869141" xlink:href="#DejaVuSans-48"/>
      </g>
     </g>
    </g>
    <g id="ytick_2">
     <g id="line2d_7">
      <g>
       <use style="stroke:#000000;stroke-width:0.8;" x="60.303125" xlink:href="#m3a05046837" y="177.125897"/>
      </g>
     </g>
     <g id="text_8">
      <!-- 4600 -->
      <g transform="translate(27.853125 180.925116)scale(0.1 -0.1)">
       <use xlink:href="#DejaVuSans-52"/>
       <use x="63.623047" xlink:href="#DejaVuSans-54"/>
       <use x="127.246094" xlink:href="#DejaVuSans-48"/>
       <use x="190.869141" xlink:href="#DejaVuSans-48"/>
      </g>
     </g>
    </g>
    <g id="ytick_3">
     <g id="line2d_8">
      <g>
       <use style="stroke:#000000;stroke-width:0.8;" x="60.303125" xlink:href="#m3a05046837" y="151.253444"/>
      </g>
     </g>
     <g id="text_9">
      <!-- 4700 -->
      <defs>
       <path d="M 8.203125 72.90625 
L 55.078125 72.90625 
L 55.078125 68.703125 
L 28.609375 0 
L 18.3125 0 
L 43.21875 64.59375 
L 8.203125 64.59375 
z
" id="DejaVuSans-55"/>
      </defs>
      <g transform="translate(27.853125 155.052663)scale(0.1 -0.1)">
       <use xlink:href="#DejaVuSans-52"/>
       <use x="63.623047" xlink:href="#DejaVuSans-55"/>
       <use x="127.246094" xlink:href="#DejaVuSans-48"/>
       <use x="190.869141" xlink:href="#DejaVuSans-48"/>
      </g>
     </g>
    </g>
    <g id="ytick_4">
     <g id="line2d_9">
      <g>
       <use style="stroke:#000000;stroke-width:0.8;" x="60.303125" xlink:href="#m3a05046837" y="125.380992"/>
      </g>
     </g>
     <g id="text_10">
      <!-- 4800 -->
      <g transform="translate(27.853125 129.18021)scale(0.1 -0.1)">
       <use xlink:href="#DejaVuSans-52"/>
       <use x="63.623047" xlink:href="#DejaVuSans-56"/>
       <use x="127.246094" xlink:href="#DejaVuSans-48"/>
       <use x="190.869141" xlink:href="#DejaVuSans-48"/>
      </g>
     </g>
    </g>
    <g id="ytick_5">
     <g id="line2d_10">
      <g>
       <use style="stroke:#000000;stroke-width:0.8;" x="60.303125" xlink:href="#m3a05046837" y="99.508539"/>
      </g>
     </g>
     <g id="text_11">
      <!-- 4900 -->
      <g transform="translate(27.853125 103.307758)scale(0.1 -0.1)">
       <use xlink:href="#DejaVuSans-52"/>
       <use x="63.623047" xlink:href="#DejaVuSans-57"/>
       <use x="127.246094" xlink:href="#DejaVuSans-48"/>
       <use x="190.869141" xlink:href="#DejaVuSans-48"/>
      </g>
     </g>
    </g>
    <g id="ytick_6">
     <g id="line2d_11">
      <g>
       <use style="stroke:#000000;stroke-width:0.8;" x="60.303125" xlink:href="#m3a05046837" y="73.636086"/>
      </g>
     </g>
     <g id="text_12">
      <!-- 5000 -->
      <g transform="translate(27.853125 77.435305)scale(0.1 -0.1)">
       <use xlink:href="#DejaVuSans-53"/>
       <use x="63.623047" xlink:href="#DejaVuSans-48"/>
       <use x="127.246094" xlink:href="#DejaVuSans-48"/>
       <use x="190.869141" xlink:href="#DejaVuSans-48"/>
      </g>
     </g>
    </g>
    <g id="ytick_7">
     <g id="line2d_12">
      <g>
       <use style="stroke:#000000;stroke-width:0.8;" x="60.303125" xlink:href="#m3a05046837" y="47.763634"/>
      </g>
     </g>
     <g id="text_13">
      <!-- 5100 -->
      <g transform="translate(27.853125 51.562852)scale(0.1 -0.1)">
       <use xlink:href="#DejaVuSans-53"/>
       <use x="63.623047" xlink:href="#DejaVuSans-49"/>
       <use x="127.246094" xlink:href="#DejaVuSans-48"/>
       <use x="190.869141" xlink:href="#DejaVuSans-48"/>
      </g>
     </g>
    </g>
    <g id="ytick_8">
     <g id="line2d_13">
      <g>
       <use style="stroke:#000000;stroke-width:0.8;" x="60.303125" xlink:href="#m3a05046837" y="21.891181"/>
      </g>
     </g>
     <g id="text_14">
      <!-- 5200 -->
      <g transform="translate(27.853125 25.6904)scale(0.1 -0.1)">
       <use xlink:href="#DejaVuSans-53"/>
       <use x="63.623047" xlink:href="#DejaVuSans-50"/>
       <use x="127.246094" xlink:href="#DejaVuSans-48"/>
       <use x="190.869141" xlink:href="#DejaVuSans-48"/>
      </g>
     </g>
    </g>
   </g>
   <g id="line2d_14">
    <path clip-path="url(#pcf91d5dce8)" d="M 60.303125 139.363685 
L 61.279828 139.363685 
L 61.419358 145.358486 
L 62.326296 145.358486 
L 62.465826 139.966028 
L 63.372765 139.966028 
L 63.512294 139.041796 
L 64.419233 139.041796 
L 64.558762 133.737617 
L 65.465701 133.737617 
L 65.60523 134.892286 
L 66.512169 134.892286 
L 66.651698 131.441446 
L 67.558637 131.441446 
L 67.698166 129.47851 
L 68.605105 129.47851 
L 68.744634 127.325005 
L 69.651573 127.325005 
L 69.791102 129.341037 
L 70.698041 129.341037 
L 70.83757 133.350088 
L 71.744509 133.350088 
L 71.884038 132.666791 
L 73.837445 132.692374 
L 73.976974 135.313076 
L 74.883913 135.313076 
L 75.023442 132.543667 
L 75.930381 132.543667 
L 76.06991 130.185891 
L 76.976849 130.185891 
L 77.116378 131.922153 
L 78.023317 131.922153 
L 78.162846 134.19567 
L 79.069785 134.19567 
L 79.209314 139.284093 
L 80.116253 139.284093 
L 80.255782 139.014495 
L 81.162721 139.014495 
L 81.30225 139.169995 
L 82.209189 139.169995 
L 82.348718 141.784816 
L 83.255657 141.784816 
L 83.395186 148.080135 
L 84.302125 148.080135 
L 84.441654 154.828439 
L 85.348593 154.828439 
L 85.488122 158.972889 
L 86.395061 158.972889 
L 86.53459 157.192595 
L 87.441529 157.192595 
L 87.581058 162.830598 
L 88.487997 162.830598 
L 88.627526 161.785141 
L 89.534465 161.785141 
L 89.673994 161.99286 
L 90.580933 161.99286 
L 90.720462 174.609427 
L 91.627401 174.609427 
L 91.76693 178.259505 
L 92.673869 178.259505 
L 92.813398 176.15666 
L 93.720337 176.15666 
L 93.859866 168.537229 
L 94.766805 168.537229 
L 94.906334 171.406962 
L 95.813273 171.406962 
L 95.952802 167.884115 
L 96.859741 167.884115 
L 96.99927 167.444837 
L 97.906209 167.444837 
L 98.045738 164.553485 
L 98.952677 164.553485 
L 99.092206 158.889095 
L 99.999145 158.889095 
L 100.138674 154.945005 
L 101.045613 154.945005 
L 101.185142 154.651665 
L 102.092081 154.651665 
L 102.23161 153.251717 
L 104.185017 153.245494 
L 104.324546 156.914029 
L 105.231485 156.914029 
L 105.371014 163.245641 
L 106.277953 163.245641 
L 106.417482 170.250307 
L 107.324421 170.250307 
L 107.46395 182.345248 
L 108.370889 182.345248 
L 108.510418 189.260293 
L 109.417357 189.260293 
L 109.556886 195.452109 
L 110.463825 195.452109 
L 110.603354 194.280751 
L 111.510293 194.280751 
L 111.649822 197.442 
L 112.556761 197.442 
L 112.69629 201.262108 
L 113.603229 201.262108 
L 113.742758 198.443109 
L 114.649697 198.443109 
L 114.789226 193.515268 
L 115.696165 193.515268 
L 115.835694 200.120414 
L 116.742633 200.120414 
L 116.882162 198.526389 
L 117.789101 198.526389 
L 117.92863 198.667389 
L 118.835569 198.667389 
L 118.975098 198.979628 
L 119.882037 198.979628 
L 120.021566 203.417112 
L 120.928505 203.417112 
L 121.068034 207.256596 
L 121.974973 207.256596 
L 122.114502 206.305482 
L 123.021441 206.305482 
L 123.16097 200.856991 
L 124.067909 200.856991 
L 124.207438 204.978009 
L 125.114377 204.978009 
L 125.253906 206.325513 
L 126.160845 206.325513 
L 126.300374 210.074319 
L 127.207313 210.074319 
L 127.346842 195.342312 
L 128.253781 195.342312 
L 128.39331 202.41452 
L 129.300249 202.41452 
L 129.439778 200.789686 
L 130.346717 200.789686 
L 130.486246 198.808745 
L 131.393185 198.808745 
L 131.532714 197.90331 
L 132.439653 197.90331 
L 132.579183 194.340877 
L 133.486121 194.340877 
L 133.625651 192.528282 
L 134.532589 192.528282 
L 134.672119 194.781662 
L 135.579057 194.781662 
L 135.718587 199.740089 
L 136.625526 199.740089 
L 136.765055 209.850479 
L 137.671994 209.850479 
L 137.811523 214.688676 
L 138.718462 214.688676 
L 138.857991 212.264402 
L 139.76493 212.264402 
L 139.904459 208.836593 
L 140.811398 208.836593 
L 140.950927 204.018739 
L 141.857866 204.018739 
L 141.997395 197.192677 
L 142.904334 197.192677 
L 143.043863 190.496127 
L 143.950802 190.496127 
L 144.090331 187.202359 
L 144.99727 187.202359 
L 145.136799 187.590909 
L 146.043738 187.590909 
L 146.183267 179.501913 
L 147.090206 179.501913 
L 147.229735 177.92759 
L 148.136674 177.92759 
L 148.276203 175.870585 
L 149.183142 175.870585 
L 149.322671 177.350244 
L 150.22961 177.350244 
L 150.369139 179.125087 
L 151.276078 179.125087 
L 151.415607 178.092783 
L 152.322546 178.092783 
L 152.462075 171.914745 
L 153.369014 171.914745 
L 153.508543 168.498891 
L 154.415482 168.498891 
L 154.555011 166.169227 
L 155.46195 166.169227 
L 155.601479 164.128651 
L 156.508418 164.128651 
L 156.647947 165.428453 
L 157.554886 165.428453 
L 157.694415 159.896296 
L 158.601354 159.896296 
L 158.740883 157.708679 
L 159.647822 157.708679 
L 159.787351 154.539851 
L 160.69429 154.539851 
L 160.833819 154.17964 
L 161.740758 154.17964 
L 161.880287 150.735483 
L 162.787226 150.735483 
L 162.926755 157.827895 
L 163.833694 157.827895 
L 163.973223 152.224906 
L 164.880162 152.224906 
L 165.019691 148.122435 
L 165.92663 148.122435 
L 166.066159 145.954376 
L 166.973098 145.954376 
L 167.112627 153.040548 
L 168.019566 153.040548 
L 168.159095 151.86761 
L 169.066034 151.86761 
L 169.205563 148.03967 
L 170.112502 148.03967 
L 170.252031 147.816109 
L 171.15897 147.816109 
L 171.298499 145.168434 
L 172.205438 145.168434 
L 172.344967 142.225549 
L 173.251906 142.225549 
L 173.391435 140.952784 
L 174.298374 140.952784 
L 174.437903 146.257108 
L 175.344842 146.257108 
L 175.484371 142.706473 
L 176.39131 142.706473 
L 176.530839 139.634267 
L 177.437778 139.634267 
L 177.577307 142.649335 
L 179.530714 142.594719 
L 179.670243 139.927062 
L 180.577182 139.927062 
L 180.716711 140.621763 
L 181.62365 140.621763 
L 181.763179 145.009157 
L 182.670118 145.009157 
L 182.809647 140.776199 
L 183.716586 140.776199 
L 183.856115 140.280828 
L 184.763054 140.280828 
L 184.902583 140.581578 
L 185.809522 140.581578 
L 185.949051 138.847206 
L 186.85599 138.847206 
L 186.995519 140.4001 
L 187.902458 140.4001 
L 188.041987 140.781158 
L 188.948926 140.781158 
L 189.088455 139.163892 
L 189.995394 139.163892 
L 190.134923 143.938503 
L 191.041862 143.938503 
L 191.181391 151.90922 
L 192.08833 151.90922 
L 192.227859 150.333397 
L 193.134798 150.333397 
L 193.274327 147.863132 
L 194.181266 147.863132 
L 194.320795 146.082037 
L 195.227734 146.082037 
L 195.367263 148.300294 
L 196.274202 148.300294 
L 196.413731 152.887747 
L 197.32067 152.887747 
L 197.460199 154.408164 
L 198.367138 154.408164 
L 198.506667 148.746675 
L 200.460074 148.762572 
L 200.599603 148.599509 
L 201.506542 148.599509 
L 201.646071 148.216907 
L 202.55301 148.216907 
L 202.692539 145.467773 
L 203.599478 145.467773 
L 203.739007 149.2633 
L 204.645946 149.2633 
L 204.785475 151.288054 
L 206.738882 151.378137 
L 206.878412 154.812188 
L 207.78535 154.812188 
L 207.92488 153.757315 
L 208.831818 153.757315 
L 208.971348 149.635402 
L 209.878286 149.635402 
L 210.017816 151.206394 
L 210.924755 151.206394 
L 211.064284 157.806197 
L 211.971223 157.806197 
L 212.110752 160.576136 
L 213.017691 160.576136 
L 213.15722 165.06797 
L 214.064159 165.06797 
L 214.203688 165.704128 
L 215.110627 165.704128 
L 215.250156 171.56242 
L 216.157095 171.56242 
L 216.296624 176.487955 
L 217.203563 176.487955 
L 217.343092 172.828886 
L 218.250031 172.828886 
L 218.38956 171.279632 
L 219.296499 171.279632 
L 219.436028 170.850603 
L 220.342967 170.850603 
L 220.482496 170.434232 
L 221.389435 170.434232 
L 221.528964 175.982856 
L 222.435903 175.982856 
L 222.575432 170.372437 
L 223.482371 170.372437 
L 223.6219 166.3473 
L 224.528839 166.3473 
L 224.668368 161.387989 
L 225.575307 161.387989 
L 225.714836 161.692547 
L 226.621775 161.692547 
L 226.761304 169.700749 
L 227.668243 169.700749 
L 227.807772 181.816675 
L 228.714711 181.816675 
L 228.85424 179.516241 
L 229.761179 179.516241 
L 229.900708 177.510469 
L 230.807647 177.510469 
L 230.947176 173.960623 
L 231.854115 173.960623 
L 231.993644 177.31722 
L 232.900583 177.31722 
L 233.040112 176.232292 
L 233.947051 176.232292 
L 234.08658 175.601407 
L 234.993519 175.601407 
L 235.133048 174.670579 
L 236.039987 174.670579 
L 236.179516 172.985313 
L 237.086455 172.985313 
L 237.225984 172.750484 
L 238.132923 172.750484 
L 238.272452 173.900491 
L 239.179391 173.900491 
L 239.31892 179.212901 
L 240.225859 179.212901 
L 240.365388 177.825281 
L 241.272327 177.825281 
L 241.411856 179.209017 
L 242.318795 179.209017 
L 242.458324 182.971689 
L 243.365263 182.971689 
L 243.504792 183.350019 
L 244.411731 183.350019 
L 244.55126 177.319466 
L 245.458199 177.319466 
L 245.597728 170.989231 
L 246.504667 170.989231 
L 246.644196 169.318326 
L 247.551135 169.318326 
L 247.690664 161.496985 
L 248.597603 161.496985 
L 248.737132 159.383324 
L 249.644071 159.383324 
L 249.7836 155.598732 
L 250.690539 155.598732 
L 250.830068 153.408024 
L 251.737007 153.408024 
L 251.876536 147.20572 
L 252.783475 147.20572 
L 252.923004 145.364317 
L 253.829943 145.364317 
L 253.969472 147.808804 
L 254.876411 147.808804 
L 255.01594 151.334092 
L 255.922879 151.334092 
L 256.062408 149.239325 
L 256.969347 149.239325 
L 257.108876 151.754235 
L 258.015815 151.754235 
L 258.155344 147.069274 
L 259.062283 147.069274 
L 259.201812 143.559385 
L 260.108751 143.559385 
L 260.24828 144.202604 
L 261.155219 144.202604 
L 261.294748 136.166884 
L 262.201687 136.166884 
L 262.341216 136.777634 
L 263.248155 136.777634 
L 263.387684 137.049237 
L 264.294623 137.049237 
L 264.434152 133.583641 
L 265.341091 133.583641 
L 265.48062 134.175497 
L 266.387559 134.175497 
L 266.527088 130.585429 
L 267.434027 130.585429 
L 267.573556 125.998418 
L 268.480495 125.998418 
L 268.620024 127.015146 
L 269.526963 127.015146 
L 269.666492 126.296532 
L 271.619899 126.322818 
L 271.759428 120.705128 
L 272.666367 120.705128 
L 272.805896 120.219767 
L 273.712835 120.219767 
L 273.852364 117.371575 
L 274.759303 117.371575 
L 274.898832 117.260314 
L 275.805771 117.260314 
L 275.9453 132.633629 
L 276.852239 132.633629 
L 276.991768 137.05126 
L 277.898707 137.05126 
L 278.038236 130.862438 
L 278.945175 130.862438 
L 279.084704 133.553175 
L 279.991643 133.553175 
L 280.131173 133.423946 
L 281.038111 133.423946 
L 281.177641 128.374527 
L 282.084579 128.374527 
L 282.224109 126.943854 
L 283.131047 126.943854 
L 283.270577 124.037725 
L 284.177515 124.037725 
L 284.317045 124.539475 
L 285.223984 124.539475 
L 285.363513 122.942165 
L 286.270452 122.942165 
L 286.409981 118.98419 
L 287.31692 118.98419 
L 287.456449 120.336374 
L 288.363388 120.336374 
L 288.502917 121.067054 
L 289.409856 121.067054 
L 289.549385 127.974785 
L 290.456324 127.974785 
L 290.595853 127.077118 
L 291.502792 127.077118 
L 291.642321 125.817701 
L 292.54926 125.817701 
L 292.688789 121.334258 
L 293.595728 121.334258 
L 293.735257 116.601432 
L 294.642196 116.601432 
L 294.781725 99.140788 
L 295.688664 99.140788 
L 295.828193 99.868517 
L 296.735132 99.868517 
L 296.874661 99.311044 
L 297.7816 99.311044 
L 297.921129 98.577989 
L 298.828068 98.577989 
L 298.967597 103.663044 
L 299.874536 103.663044 
L 300.014065 98.148266 
L 300.921004 98.148266 
L 301.060533 95.807067 
L 301.967472 95.807067 
L 302.107001 95.455666 
L 303.01394 95.455666 
L 303.153469 91.846262 
L 304.060408 91.846262 
L 304.199937 93.218872 
L 305.106876 93.218872 
L 305.246405 94.724664 
L 306.153344 94.724664 
L 306.292873 93.369898 
L 307.199812 93.369898 
L 307.339341 92.301449 
L 308.24628 92.301449 
L 308.385809 89.902633 
L 309.292748 89.902633 
L 309.432277 89.316127 
L 310.339216 89.316127 
L 310.478745 86.834521 
L 311.385684 86.834521 
L 311.525213 78.536578 
L 312.432152 78.536578 
L 312.571681 68.743921 
L 313.47862 68.743921 
L 313.618149 65.440435 
L 314.525088 65.440435 
L 314.664617 63.222239 
L 315.571556 63.222239 
L 315.711085 66.377817 
L 316.618024 66.377817 
L 316.757553 62.432415 
L 317.664492 62.432415 
L 317.804021 63.749726 
L 318.71096 63.749726 
L 318.850489 59.772492 
L 319.757428 59.772492 
L 319.896957 57.825777 
L 320.803896 57.825777 
L 320.943425 56.715385 
L 321.850364 56.715385 
L 321.989893 55.923413 
L 322.896832 55.923413 
L 323.036361 54.688641 
L 323.9433 54.688641 
L 324.082829 58.637126 
L 324.989768 58.637126 
L 325.129297 57.781865 
L 326.036236 57.781865 
L 326.175765 51.921954 
L 327.082704 51.921954 
L 327.222233 48.774204 
L 328.129172 48.774204 
L 328.268701 39.889141 
L 329.17564 39.889141 
L 329.315169 45.503636 
L 330.222108 45.503636 
L 330.361637 52.196581 
L 331.268576 52.196581 
L 331.408105 43.436279 
L 332.315044 43.436279 
L 332.454573 39.788907 
L 333.361512 39.788907 
L 333.501041 36.784015 
L 334.40798 36.784015 
L 334.547509 34.698912 
L 335.454448 34.698912 
L 335.593977 30.861124 
L 336.500916 30.861124 
L 336.640445 28.723696 
L 337.547384 28.723696 
L 337.686913 31.861055 
L 338.593852 31.861055 
L 338.733381 38.006053 
L 339.64032 38.006053 
L 339.779849 30.137079 
L 340.686788 30.137079 
L 340.826317 28.4461 
L 341.733256 28.4461 
L 341.872785 27.863935 
L 342.779724 27.863935 
L 342.919253 24.37096 
L 343.826192 24.37096 
L 343.965721 23.060795 
L 344.87266 23.060795 
L 345.012189 19.151054 
L 345.919128 19.151054 
L 346.058657 31.241141 
L 346.965596 31.241141 
L 347.105125 34.206685 
L 348.012064 34.206685 
L 348.151593 28.483173 
L 349.058532 28.483173 
L 349.198061 25.732227 
L 350.105 25.732227 
L 350.244529 28.330891 
L 351.151468 28.330891 
L 351.290997 23.118459 
L 352.197936 23.118459 
L 352.337465 25.508489 
L 353.244404 25.508489 
L 353.383934 31.444743 
L 354.290872 31.444743 
L 354.430402 35.544011 
L 355.33734 35.544011 
L 355.47687 30.174238 
L 356.383808 30.174238 
L 356.523338 26.895796 
L 357.430276 26.895796 
L 357.569806 23.387621 
L 358.476745 23.387621 
L 358.616274 25.304353 
L 359.523213 25.304353 
L 359.662742 22.380446 
L 360.569681 22.380446 
L 360.70921 26.047811 
L 361.616149 26.047811 
L 361.755678 32.183258 
L 362.662617 32.183258 
L 362.802146 31.222656 
L 363.709085 31.222656 
L 363.848614 28.539423 
L 364.755553 28.539423 
L 364.895082 24.332724 
L 365.802021 24.332724 
L 365.94155 23.246233 
L 366.848489 23.246233 
L 366.988018 31.598914 
L 367.894957 31.598914 
L 368.034486 41.457048 
L 368.941425 41.457048 
L 369.080954 44.098431 
L 369.987893 44.098431 
L 370.127422 56.664022 
L 371.034361 56.664022 
L 371.17389 53.977945 
L 372.080829 53.977945 
L 372.220358 54.337008 
L 373.127297 54.337008 
L 373.266826 62.886126 
L 374.173765 62.886126 
L 374.313294 66.037403 
L 375.220233 66.037403 
L 375.359762 79.869268 
L 376.266701 79.869268 
L 376.40623 82.750172 
L 377.313169 82.750172 
L 377.452698 109.452682 
L 378.359637 109.452682 
L 378.499166 121.960848 
L 379.406105 121.960848 
L 379.545634 142.590405 
L 380.452573 142.590405 
L 380.592102 117.129833 
L 381.499041 117.129833 
L 381.63857 114.177825 
L 382.545509 114.177825 
L 382.685038 111.441628 
L 383.591977 111.441628 
L 383.731506 117.258978 
L 384.638445 117.258978 
L 384.777974 118.284764 
L 385.684913 118.284764 
L 385.824442 112.364325 
L 386.731381 112.364325 
L 386.87091 107.042977 
L 387.777849 107.042977 
L 387.917378 104.778407 
L 388.824317 104.778407 
L 388.963846 99.709685 
L 389.870785 99.709685 
L 390.010314 97.949224 
L 390.917253 97.949224 
L 391.056782 114.22402 
L 391.963721 114.22402 
L 392.10325 117.489213 
L 393.010189 117.489213 
L 393.149718 128.95398 
L 394.056657 128.95398 
L 394.196186 115.809627 
L 395.103125 115.809627 
L 395.103125 115.809627 
" style="fill:none;stroke:#1f77b4;stroke-linecap:square;stroke-opacity:0.6;stroke-width:1.5;"/>
   </g>
   <g id="line2d_15">
    <path clip-path="url(#pcf91d5dce8)" d="M 60.303125 135.878261 
L 60.512419 135.878261 
L 60.651948 139.015641 
L 60.931006 139.015641 
L 61.070535 145.021753 
L 61.419358 145.021753 
L 61.558887 147.791363 
L 61.907709 147.791363 
L 62.047238 142.114653 
L 62.605355 142.114653 
L 62.744884 138.987903 
L 64.488997 138.914153 
L 64.628526 134.053836 
L 65.674994 134.053836 
L 65.814523 133.025161 
L 66.930756 133.025161 
L 67.070285 130.662442 
L 68.465576 130.662442 
L 68.605105 127.59591 
L 69.930631 127.59591 
L 70.07016 131.476046 
L 71.60498 131.476046 
L 71.744509 132.883136 
L 73.558387 132.883136 
L 73.697916 134.972199 
L 75.162971 134.972199 
L 75.3025 131.324464 
L 76.348968 131.324464 
L 76.488497 129.764348 
L 76.976849 129.764348 
L 77.116378 133.216165 
L 77.325671 133.216165 
L 77.4652 130.809861 
L 77.744259 130.809861 
L 77.883788 131.270191 
L 78.162846 131.270191 
L 78.302375 134.569145 
L 78.720962 134.569145 
L 78.860491 135.902427 
L 79.418607 135.902427 
L 79.558136 140.638057 
L 80.186017 140.638057 
L 80.325546 138.747279 
L 81.441779 138.747279 
L 81.581308 139.69348 
L 82.906834 139.69348 
L 83.046363 146.782303 
L 83.883538 146.782303 
L 84.023067 153.517362 
L 84.860241 153.517362 
L 84.99977 157.190834 
L 85.976474 157.190834 
L 86.116003 157.027177 
L 87.371764 157.027177 
L 87.511293 162.917535 
L 88.348468 162.917535 
L 88.487997 160.999604 
L 89.743758 160.999604 
L 89.883288 165.032529 
L 90.720462 165.032529 
L 90.859991 173.64415 
L 91.487872 173.64415 
L 91.627401 180.642304 
L 92.185517 180.642304 
L 92.325046 175.174989 
L 93.092456 175.174989 
L 93.231985 176.371362 
L 93.720337 176.371362 
L 93.859866 167.100358 
L 94.278453 167.100358 
L 94.417982 170.864119 
L 94.906334 170.864119 
L 95.045863 172.648402 
L 95.46445 172.648402 
L 95.603979 168.084869 
L 96.510918 168.084869 
L 96.650447 167.459487 
L 97.76668 167.459487 
L 97.906209 164.487476 
L 99.231735 164.487476 
L 99.371264 156.852038 
L 100.487497 156.852038 
L 100.627026 154.288384 
L 102.161846 154.288384 
L 102.301375 153.19008 
L 103.696665 153.19008 
L 103.836194 156.878647 
L 105.510543 156.878647 
L 105.650072 166.61604 
L 106.836069 166.61604 
L 106.975598 177.597494 
L 107.952302 177.597494 
L 108.091831 187.122824 
L 108.789476 187.122824 
L 108.929005 190.596446 
L 109.556886 190.596446 
L 109.696415 197.890056 
L 110.115002 197.890056 
L 110.254532 193.574852 
L 111.510293 193.489561 
L 111.649822 197.7361 
L 113.045113 197.737025 
L 113.184642 202.389934 
L 114.021816 202.389934 
L 114.161345 195.180846 
L 115.486872 195.180846 
L 115.626401 198.695884 
L 117.649572 198.695884 
L 117.789101 199.500419 
L 120.370389 199.500419 
L 120.509918 206.065094 
L 121.905209 206.065094 
L 122.044738 205.078249 
L 123.440029 205.078249 
L 123.579558 203.870656 
L 125.4632 203.870656 
L 125.602729 208.10895 
L 126.439903 208.10895 
L 126.579433 210.064385 
L 127.207313 210.064385 
L 127.346842 194.521229 
L 127.76543 194.521229 
L 127.904959 198.507222 
L 128.602604 198.507222 
L 128.742133 202.797414 
L 129.649072 202.797414 
L 129.788601 199.209587 
L 131.114127 199.209587 
L 131.253656 197.480014 
L 133.067534 197.480014 
L 133.207063 192.67242 
L 135.020941 192.67242 
L 135.16047 199.304204 
L 136.765055 199.304204 
L 136.904584 210.497147 
L 137.671994 210.497147 
L 137.811523 214.756364 
L 139.137049 214.756364 
L 139.276578 209.239132 
L 141.16022 209.239132 
L 141.299749 199.423855 
L 142.69504 199.423855 
L 142.834569 192.023511 
L 143.741508 192.023511 
L 143.881037 186.572318 
L 144.020566 186.572318 
L 144.160095 186.32687 
L 144.508918 186.32687 
L 144.648447 190.394608 
L 145.206563 190.394608 
L 145.346092 186.374764 
L 145.973973 186.374764 
L 146.113502 180.313945 
L 146.880912 180.313945 
L 147.020441 178.019556 
L 147.92738 178.019556 
L 148.066909 175.597191 
L 148.904084 175.597191 
L 149.043613 177.546539 
L 150.299374 177.546539 
L 150.438903 178.870077 
L 152.252781 178.870077 
L 152.39231 171.464122 
L 153.648072 171.464122 
L 153.787601 167.883361 
L 155.043363 167.883361 
L 155.182892 164.453535 
L 157.903708 164.463599 
L 158.043238 158.51172 
L 158.950176 158.51172 
L 159.089706 156.469873 
L 160.066409 156.469873 
L 160.205938 154.386365 
L 160.69429 154.386365 
L 160.833819 156.0467 
L 161.252406 156.0467 
L 161.391935 151.45744 
L 161.880287 151.45744 
L 162.019816 149.771085 
L 162.577932 149.771085 
L 162.717461 157.834676 
L 163.275578 157.834676 
L 163.415107 155.553164 
L 164.182517 155.553164 
L 164.322046 150.419859 
L 165.228985 150.419859 
L 165.368514 146.128329 
L 166.135923 146.128329 
L 166.275453 148.071032 
L 167.182392 148.071032 
L 167.321921 152.899269 
L 168.926505 152.899269 
L 169.066034 148.358347 
L 170.740383 148.358347 
L 170.879912 145.667898 
L 172.065909 145.667898 
L 172.205438 142.36405 
L 173.321671 142.36405 
L 173.4612 143.105294 
L 174.716961 143.105294 
L 174.85649 144.45038 
L 176.182016 144.45038 
L 176.321546 139.818004 
L 177.019191 139.818004 
L 177.15872 141.347367 
L 177.577307 141.347367 
L 177.716836 142.480408 
L 178.065659 142.480408 
L 178.205188 141.500187 
L 178.763304 141.500187 
L 178.902833 143.80349 
L 179.46095 143.80349 
L 179.600479 140.437398 
L 180.437653 140.437398 
L 180.577182 140.101726 
L 181.62365 140.101726 
L 181.763179 144.889515 
L 182.879412 144.889515 
L 183.018941 140.147527 
L 186.08858 140.231133 
L 186.228109 138.784742 
L 187.6234 138.784742 
L 187.762929 141.661361 
L 188.809397 141.661361 
L 188.948926 140.338203 
L 190.204688 140.338203 
L 190.344217 146.305193 
L 191.460449 146.305193 
L 191.599979 152.909654 
L 192.297624 152.909654 
L 192.437153 149.850269 
L 193.413856 149.850269 
L 193.553385 147.44362 
L 194.181266 147.44362 
L 194.320795 145.356842 
L 194.669618 145.356842 
L 194.809147 147.074776 
L 195.367263 147.074776 
L 195.506792 148.556649 
L 196.204438 148.556649 
L 196.343967 151.701634 
L 196.971848 151.701634 
L 197.111377 153.259711 
L 197.809022 153.259711 
L 197.948551 154.980812 
L 198.715961 154.980812 
L 198.85549 147.635225 
L 200.111252 147.635225 
L 200.250781 149.097971 
L 201.92513 149.097971 
L 202.064659 146.079036 
L 203.459949 146.079036 
L 203.599478 149.763302 
L 205.483121 149.763302 
L 205.62265 152.619351 
L 207.366763 152.619351 
L 207.506292 153.737631 
L 208.901583 153.737631 
L 209.041112 149.593296 
L 210.017816 149.593296 
L 210.157345 151.502218 
L 210.924755 151.502218 
L 211.064284 156.936324 
L 211.343342 156.936324 
L 211.482871 158.782738 
L 211.971223 158.782738 
L 212.110752 159.242386 
L 212.738632 159.242386 
L 212.878161 164.234709 
L 213.645571 164.234709 
L 213.7851 165.568031 
L 214.971097 165.568031 
L 215.110627 171.151006 
L 216.157095 171.151006 
L 216.296624 176.432165 
L 217.273327 176.432165 
L 217.412856 172.112153 
L 219.15697 172.112153 
L 219.296499 170.306793 
L 221.249906 170.306793 
L 221.389435 174.944772 
L 222.85449 174.944772 
L 222.994019 167.012881 
L 224.598603 167.012881 
L 224.738132 160.94919 
L 226.133423 160.94919 
L 226.272952 165.805483 
L 227.249656 165.805483 
L 227.389185 177.682531 
L 227.807772 177.682531 
L 227.947301 180.982912 
L 228.575182 180.982912 
L 228.714711 179.200094 
L 229.62165 179.200094 
L 229.761179 177.738463 
L 231.01694 177.738463 
L 231.156469 175.024991 
L 232.621525 175.024991 
L 232.761054 176.551665 
L 234.784225 176.551665 
L 234.923754 173.616167 
L 237.225984 173.616167 
L 237.365513 173.313589 
L 239.109626 173.313589 
L 239.249155 179.011512 
L 242.528089 178.918449 
L 242.667618 183.079387 
L 243.714086 183.079387 
L 243.853615 182.898997 
L 244.55126 182.898997 
L 244.690789 176.740404 
L 245.388434 176.740404 
L 245.527964 171.785847 
L 246.155844 171.785847 
L 246.295373 170.419566 
L 247.272077 170.419566 
L 247.411606 163.139255 
L 248.24878 163.139255 
L 248.388309 159.766942 
L 249.574306 159.766942 
L 249.713836 155.480458 
L 250.969597 155.480458 
L 251.109126 150.398909 
L 252.225359 150.398909 
L 252.364888 145.48412 
L 253.550885 145.48412 
L 253.690414 148.563111 
L 255.085705 148.563111 
L 255.225234 150.18216 
L 257.039112 150.18216 
L 257.178641 149.770834 
L 258.922754 149.770834 
L 259.062283 143.826519 
L 260.318045 143.826519 
L 260.457574 144.02774 
L 261.155219 144.02774 
L 261.294748 135.602708 
L 261.7831 135.602708 
L 261.922629 137.614151 
L 262.480745 137.614151 
L 262.620274 136.393488 
L 263.387684 136.393488 
L 263.527213 136.226566 
L 264.573681 136.226566 
L 264.71321 133.434574 
L 265.829443 133.434574 
L 265.968972 132.749852 
L 267.224734 132.749852 
L 267.364263 126.400976 
L 268.480495 126.400976 
L 268.620024 126.860214 
L 270.015315 126.860214 
L 270.154844 126.141617 
L 271.759428 126.141617 
L 271.898957 120.267804 
L 272.666367 120.267804 
L 272.805896 119.967609 
L 273.922129 119.967609 
L 274.061658 116.342657 
L 275.247655 116.342657 
L 275.387184 122.303729 
L 276.224359 122.303729 
L 276.363888 135.803131 
L 277.061533 135.803131 
L 277.201062 137.458599 
L 277.898707 137.458599 
L 278.038236 130.76025 
L 278.735882 130.76025 
L 278.875411 131.601133 
L 279.712585 131.601133 
L 279.852114 135.801098 
L 280.759053 135.801098 
L 280.898582 128.837447 
L 282.224109 128.837447 
L 282.363638 125.346875 
L 283.758928 125.346875 
L 283.898457 124.7341 
L 285.712335 124.7341 
L 285.851864 119.997028 
L 288.781975 120.018414 
L 288.921504 125.013824 
L 289.898207 125.013824 
L 290.037736 127.00152 
L 291.642321 127.00152 
L 291.78185 123.460009 
L 293.246905 123.460009 
L 293.386434 118.521816 
L 294.223608 118.521816 
L 294.363138 105.404494 
L 294.71196 105.404494 
L 294.851489 99.515091 
L 295.130547 99.515091 
L 295.270076 100.824268 
L 295.688664 100.824268 
L 295.828193 103.169193 
L 296.316544 103.169193 
L 296.456074 96.485555 
L 296.804896 96.485555 
L 296.944425 100.432517 
L 297.363012 100.432517 
L 297.502542 97.604384 
L 298.688539 97.712689 
L 298.828068 104.316807 
L 299.595478 104.316807 
L 299.735007 99.024235 
L 300.921004 99.024235 
L 301.060533 95.929418 
L 302.176765 95.929418 
L 302.316294 94.124894 
L 303.223233 94.124894 
L 303.362762 91.580842 
L 304.269701 91.580842 
L 304.40923 94.300496 
L 305.664992 94.300496 
L 305.804521 93.58982 
L 307.339341 93.58982 
L 307.47887 91.761791 
L 308.525338 91.761791 
L 308.664867 90.01754 
L 309.571806 90.01754 
L 309.711335 88.486976 
L 310.478745 88.486976 
L 310.618274 87.089378 
L 311.106626 87.089378 
L 311.246155 85.97093 
L 311.455448 85.97093 
L 311.594977 79.362197 
L 311.874036 79.362197 
L 312.013565 74.999724 
L 312.292623 74.999724 
L 312.432152 71.570482 
L 312.780975 71.570482 
L 312.920504 68.35994 
L 313.339091 68.35994 
L 313.47862 65.091521 
L 314.036736 65.091521 
L 314.176265 65.654833 
L 314.734382 65.654833 
L 314.873911 63.237862 
L 315.64132 63.237862 
L 315.78085 66.231978 
L 316.687788 66.231978 
L 316.827318 62.489595 
L 317.873786 62.489595 
L 318.013315 62.695461 
L 319.059783 62.695461 
L 319.199312 58.303938 
L 320.315544 58.303938 
L 320.455073 57.639107 
L 321.64107 57.639107 
L 321.780599 55.951003 
L 322.757303 55.951003 
L 322.896832 54.757162 
L 323.9433 54.757162 
L 324.082829 58.364894 
L 324.920004 58.364894 
L 325.059533 57.416452 
L 326.24553 57.416452 
L 326.385059 51.510898 
L 327.082704 51.510898 
L 327.222233 49.095532 
L 327.710585 49.095532 
L 327.850114 48.343236 
L 328.129172 48.343236 
L 328.268701 35.00776 
L 328.40823 35.00776 
L 328.547759 43.360562 
L 328.826817 43.360562 
L 328.966347 41.940934 
L 329.454698 41.940934 
L 329.594227 45.158006 
L 330.012815 45.158006 
L 330.152344 53.22638 
L 330.431402 53.22638 
L 330.570931 50.921142 
L 331.129047 50.921142 
L 331.268576 44.66883 
L 332.105751 44.66883 
L 332.24528 40.545737 
L 333.152219 40.545737 
L 333.291748 37.000552 
L 334.198687 37.000552 
L 334.338216 34.75449 
L 335.524213 34.75449 
L 335.663742 30.769771 
L 336.500916 30.769771 
L 336.640445 28.168204 
L 337.407855 28.168204 
L 337.547384 31.988955 
L 338.524088 31.988955 
L 338.663617 38.223551 
L 339.361262 38.223551 
L 339.500791 31.423301 
L 340.337966 31.423301 
L 340.477495 29.385407 
L 341.593727 29.385407 
L 341.733256 27.777193 
L 342.570431 27.777193 
L 342.70996 25.254367 
L 343.47737 25.254367 
L 343.616899 24.098066 
L 344.24478 24.098066 
L 344.384309 22.506889 
L 344.87266 22.506889 
L 345.012189 20.255105 
L 345.151718 20.255105 
L 345.291248 20.447443 
L 345.570306 20.447443 
L 345.709835 17.083636 
L 346.058657 17.083636 
L 346.198186 25.592265 
L 346.477245 25.592265 
L 346.616774 38.363854 
L 346.895832 38.363854 
L 347.035361 36.379762 
L 347.453948 36.379762 
L 347.593477 30.639989 
L 348.221358 30.639989 
L 348.360887 29.0302 
L 349.267826 29.0302 
L 349.407355 25.708255 
L 350.244529 25.708255 
L 350.384059 27.642635 
L 351.500291 27.642635 
L 351.63982 22.594896 
L 352.756053 22.594896 
L 352.895582 28.187572 
L 353.94205 28.187572 
L 354.081579 34.985769 
L 354.918753 34.985769 
L 355.058282 32.27788 
L 356.244279 32.27788 
L 356.383808 27.134428 
L 357.430276 27.134428 
L 357.569806 23.366058 
L 358.616274 23.366058 
L 358.755803 25.249471 
L 359.732506 25.249471 
L 359.872035 22.020851 
L 360.499916 22.020851 
L 360.639445 25.2823 
L 361.267326 25.2823 
L 361.406855 29.316094 
L 361.685913 29.316094 
L 361.825442 34.358067 
L 362.174265 34.358067 
L 362.313794 29.446631 
L 362.662617 29.446631 
L 362.802146 31.275921 
L 363.220733 31.275921 
L 363.360262 31.401108 
L 363.848614 31.401108 
L 363.988143 29.316022 
L 364.336965 29.316022 
L 364.476494 25.380959 
L 365.104375 25.380959 
L 365.243904 23.743718 
L 365.94155 23.743718 
L 366.081079 20.360114 
L 366.499666 20.360114 
L 366.639195 28.825749 
L 367.197311 28.825749 
L 367.33684 35.05275 
L 368.034486 35.05275 
L 368.174015 41.569287 
L 368.941425 41.569287 
L 369.080954 44.098431 
L 369.987893 44.098431 
L 370.127422 57.444022 
L 370.615773 57.444022 
L 370.755303 56.009495 
L 371.592477 56.009495 
L 371.732006 52.951339 
L 372.56918 52.951339 
L 372.708709 56.117286 
L 373.685413 56.117286 
L 373.824942 65.221 
L 374.452823 65.221 
L 374.592352 69.88152 
L 375.359762 69.88152 
L 375.499291 82.145267 
L 375.917878 82.145267 
L 376.057407 80.533444 
L 376.755052 80.533444 
L 376.894582 85.509076 
L 377.452698 85.509076 
L 377.592227 105.827011 
L 377.80152 105.827011 
L 377.94105 115.174617 
L 378.220108 115.174617 
L 378.359637 109.52969 
L 378.499166 109.52969 
L 378.638695 104.935134 
L 378.847989 104.935134 
L 378.987518 127.759367 
L 379.196811 127.759367 
L 379.33634 154.338745 
L 379.475869 154.338745 
L 379.615398 143.250296 
L 379.964221 143.250296 
L 380.10375 132.667988 
L 380.592102 132.667988 
L 380.731631 116.907222 
L 381.289747 116.907222 
L 381.429276 117.154122 
L 382.266451 117.154122 
L 382.40598 109.947158 
L 383.591977 109.947158 
L 383.731506 118.056327 
L 385.196561 118.056327 
L 385.33609 112.532091 
L 386.801145 112.532091 
L 386.940674 105.789733 
L 388.266201 105.789733 
L 388.40573 102.243229 
L 389.80102 102.243229 
L 389.940549 98.893541 
L 391.056782 98.893541 
L 391.196311 115.232413 
L 392.173015 115.232413 
L 392.312544 120.875673 
L 393.289247 120.875673 
L 393.428776 130.108385 
L 394.056657 130.108385 
L 394.196186 115.927841 
L 395.03336 115.927841 
L 395.103125 114.817554 
L 395.103125 114.817554 
" style="fill:none;stroke:#ff7f0e;stroke-linecap:square;stroke-opacity:0.6;stroke-width:1.5;"/>
   </g>
   <g id="patch_3">
    <path d="M 60.303125 224.64 
L 60.303125 7.2 
" style="fill:none;stroke:#000000;stroke-linecap:square;stroke-linejoin:miter;stroke-width:0.8;"/>
   </g>
   <g id="patch_4">
    <path d="M 395.103125 224.64 
L 395.103125 7.2 
" style="fill:none;stroke:#000000;stroke-linecap:square;stroke-linejoin:miter;stroke-width:0.8;"/>
   </g>
   <g id="patch_5">
    <path d="M 60.303125 224.64 
L 395.103125 224.64 
" style="fill:none;stroke:#000000;stroke-linecap:square;stroke-linejoin:miter;stroke-width:0.8;"/>
   </g>
   <g id="patch_6">
    <path d="M 60.303125 7.2 
L 395.103125 7.2 
" style="fill:none;stroke:#000000;stroke-linecap:square;stroke-linejoin:miter;stroke-width:0.8;"/>
   </g>
   <g id="legend_1">
    <g id="patch_7">
     <path d="M 67.303125 44.55625 
L 136.35 44.55625 
Q 138.35 44.55625 138.35 42.55625 
L 138.35 14.2 
Q 138.35 12.2 136.35 12.2 
L 67.303125 12.2 
Q 65.303125 12.2 65.303125 14.2 
L 65.303125 42.55625 
Q 65.303125 44.55625 67.303125 44.55625 
z
" style="fill:#ffffff;opacity:0.8;stroke:#cccccc;stroke-linejoin:miter;"/>
    </g>
    <g id="line2d_16">
     <path d="M 69.303125 20.298437 
L 89.303125 20.298437 
" style="fill:none;stroke:#1f77b4;stroke-linecap:square;stroke-opacity:0.6;stroke-width:1.5;"/>
    </g>
    <g id="line2d_17"/>
    <g id="text_15">
     <!-- time -->
     <g transform="translate(97.303125 23.798437)scale(0.1 -0.1)">
      <use xlink:href="#DejaVuSans-116"/>
      <use x="39.208984" xlink:href="#DejaVuSans-105"/>
      <use x="66.992188" xlink:href="#DejaVuSans-109"/>
      <use x="164.404297" xlink:href="#DejaVuSans-101"/>
     </g>
    </g>
    <g id="line2d_18">
     <path d="M 69.303125 34.976562 
L 89.303125 34.976562 
" style="fill:none;stroke:#ff7f0e;stroke-linecap:square;stroke-opacity:0.6;stroke-width:1.5;"/>
    </g>
    <g id="line2d_19"/>
    <g id="text_16">
     <!-- volume -->
     <defs>
      <path d="M 2.984375 54.6875 
L 12.5 54.6875 
L 29.59375 8.796875 
L 46.6875 54.6875 
L 56.203125 54.6875 
L 35.6875 0 
L 23.484375 0 
z
" id="DejaVuSans-118"/>
      <path d="M 30.609375 48.390625 
Q 23.390625 48.390625 19.1875 42.75 
Q 14.984375 37.109375 14.984375 27.296875 
Q 14.984375 17.484375 19.15625 11.84375 
Q 23.34375 6.203125 30.609375 6.203125 
Q 37.796875 6.203125 41.984375 11.859375 
Q 46.1875 17.53125 46.1875 27.296875 
Q 46.1875 37.015625 41.984375 42.703125 
Q 37.796875 48.390625 30.609375 48.390625 
z
M 30.609375 56 
Q 42.328125 56 49.015625 48.375 
Q 55.71875 40.765625 55.71875 27.296875 
Q 55.71875 13.875 49.015625 6.21875 
Q 42.328125 -1.421875 30.609375 -1.421875 
Q 18.84375 -1.421875 12.171875 6.21875 
Q 5.515625 13.875 5.515625 27.296875 
Q 5.515625 40.765625 12.171875 48.375 
Q 18.84375 56 30.609375 56 
z
" id="DejaVuSans-111"/>
      <path d="M 9.421875 75.984375 
L 18.40625 75.984375 
L 18.40625 0 
L 9.421875 0 
z
" id="DejaVuSans-108"/>
      <path d="M 8.5 21.578125 
L 8.5 54.6875 
L 17.484375 54.6875 
L 17.484375 21.921875 
Q 17.484375 14.15625 20.5 10.265625 
Q 23.53125 6.390625 29.59375 6.390625 
Q 36.859375 6.390625 41.078125 11.03125 
Q 45.3125 15.671875 45.3125 23.6875 
L 45.3125 54.6875 
L 54.296875 54.6875 
L 54.296875 0 
L 45.3125 0 
L 45.3125 8.40625 
Q 42.046875 3.421875 37.71875 1 
Q 33.40625 -1.421875 27.6875 -1.421875 
Q 18.265625 -1.421875 13.375 4.4375 
Q 8.5 10.296875 8.5 21.578125 
z
M 31.109375 56 
z
" id="DejaVuSans-117"/>
     </defs>
     <g transform="translate(97.303125 38.476562)scale(0.1 -0.1)">
      <use xlink:href="#DejaVuSans-118"/>
      <use x="59.179688" xlink:href="#DejaVuSans-111"/>
      <use x="120.361328" xlink:href="#DejaVuSans-108"/>
      <use x="148.144531" xlink:href="#DejaVuSans-117"/>
      <use x="211.523438" xlink:href="#DejaVuSans-109"/>
      <use x="308.935547" xlink:href="#DejaVuSans-101"/>
     </g>
    </g>
   </g>
  </g>
 </g>
 <defs>
  <clipPath id="pcf91d5dce8">
   <rect height="217.44" width="334.8" x="60.303125" y="7.2"/>
  </clipPath>
 </defs>
</svg>
