<?xml version="1.0" encoding="utf-8" standalone="no"?>
<!DOCTYPE svg PUBLIC "-//W3C//DTD SVG 1.1//EN"
  "http://www.w3.org/Graphics/SVG/1.1/DTD/svg11.dtd">
<!-- Created with matplotlib (https://matplotlib.org/) -->
<svg height="262.19625pt" version="1.1" viewBox="0 0 402.303125 262.19625" width="402.303125pt" xmlns="http://www.w3.org/2000/svg" xmlns:xlink="http://www.w3.org/1999/xlink">
 <defs>
  <style type="text/css">
*{stroke-linecap:butt;stroke-linejoin:round;}
  </style>
 </defs>
 <g id="figure_1">
  <g id="patch_1">
   <path d="M 0 262.19625 
L 402.303125 262.19625 
L 402.303125 0 
L 0 0 
z
" style="fill:none;"/>
  </g>
  <g id="axes_1">
   <g id="patch_2">
    <path d="M 60.303125 224.64 
L 395.103125 224.64 
L 395.103125 7.2 
L 60.303125 7.2 
z
" style="fill:#ffffff;"/>
   </g>
   <g id="matplotlib.axis_1">
    <g id="xtick_1">
     <g id="line2d_1">
      <defs>
       <path d="M 0 0 
L 0 3.5 
" id="m250c252f25" style="stroke:#000000;stroke-width:0.8;"/>
      </defs>
      <g>
       <use style="stroke:#000000;stroke-width:0.8;" x="60.303125" xlink:href="#m250c252f25" y="224.64"/>
      </g>
     </g>
     <g id="text_1">
      <!-- 2015-05-04 09:31:00 -->
      <defs>
       <path d="M 19.1875 8.296875 
L 53.609375 8.296875 
L 53.609375 0 
L 7.328125 0 
L 7.328125 8.296875 
Q 12.9375 14.109375 22.625 23.890625 
Q 32.328125 33.6875 34.8125 36.53125 
Q 39.546875 41.84375 41.421875 45.53125 
Q 43.3125 49.21875 43.3125 52.78125 
Q 43.3125 58.59375 39.234375 62.25 
Q 35.15625 65.921875 28.609375 65.921875 
Q 23.96875 65.921875 18.8125 64.3125 
Q 13.671875 62.703125 7.8125 59.421875 
L 7.8125 69.390625 
Q 13.765625 71.78125 18.9375 73 
Q 24.125 74.21875 28.421875 74.21875 
Q 39.75 74.21875 46.484375 68.546875 
Q 53.21875 62.890625 53.21875 53.421875 
Q 53.21875 48.921875 51.53125 44.890625 
Q 49.859375 40.875 45.40625 35.40625 
Q 44.1875 33.984375 37.640625 27.21875 
Q 31.109375 20.453125 19.1875 8.296875 
z
" id="DejaVuSans-50"/>
       <path d="M 31.78125 66.40625 
Q 24.171875 66.40625 20.328125 58.90625 
Q 16.5 51.421875 16.5 36.375 
Q 16.5 21.390625 20.328125 13.890625 
Q 24.171875 6.390625 31.78125 6.390625 
Q 39.453125 6.390625 43.28125 13.890625 
Q 47.125 21.390625 47.125 36.375 
Q 47.125 51.421875 43.28125 58.90625 
Q 39.453125 66.40625 31.78125 66.40625 
z
M 31.78125 74.21875 
Q 44.046875 74.21875 50.515625 64.515625 
Q 56.984375 54.828125 56.984375 36.375 
Q 56.984375 17.96875 50.515625 8.265625 
Q 44.046875 -1.421875 31.78125 -1.421875 
Q 19.53125 -1.421875 13.0625 8.265625 
Q 6.59375 17.96875 6.59375 36.375 
Q 6.59375 54.828125 13.0625 64.515625 
Q 19.53125 74.21875 31.78125 74.21875 
z
" id="DejaVuSans-48"/>
       <path d="M 12.40625 8.296875 
L 28.515625 8.296875 
L 28.515625 63.921875 
L 10.984375 60.40625 
L 10.984375 69.390625 
L 28.421875 72.90625 
L 38.28125 72.90625 
L 38.28125 8.296875 
L 54.390625 8.296875 
L 54.390625 0 
L 12.40625 0 
z
" id="DejaVuSans-49"/>
       <path d="M 10.796875 72.90625 
L 49.515625 72.90625 
L 49.515625 64.59375 
L 19.828125 64.59375 
L 19.828125 46.734375 
Q 21.96875 47.46875 24.109375 47.828125 
Q 26.265625 48.1875 28.421875 48.1875 
Q 40.625 48.1875 47.75 41.5 
Q 54.890625 34.8125 54.890625 23.390625 
Q 54.890625 11.625 47.5625 5.09375 
Q 40.234375 -1.421875 26.90625 -1.421875 
Q 22.3125 -1.421875 17.546875 -0.640625 
Q 12.796875 0.140625 7.71875 1.703125 
L 7.71875 11.625 
Q 12.109375 9.234375 16.796875 8.0625 
Q 21.484375 6.890625 26.703125 6.890625 
Q 35.15625 6.890625 40.078125 11.328125 
Q 45.015625 15.765625 45.015625 23.390625 
Q 45.015625 31 40.078125 35.4375 
Q 35.15625 39.890625 26.703125 39.890625 
Q 22.75 39.890625 18.8125 39.015625 
Q 14.890625 38.140625 10.796875 36.28125 
z
" id="DejaVuSans-53"/>
       <path d="M 4.890625 31.390625 
L 31.203125 31.390625 
L 31.203125 23.390625 
L 4.890625 23.390625 
z
" id="DejaVuSans-45"/>
       <path d="M 37.796875 64.3125 
L 12.890625 25.390625 
L 37.796875 25.390625 
z
M 35.203125 72.90625 
L 47.609375 72.90625 
L 47.609375 25.390625 
L 58.015625 25.390625 
L 58.015625 17.1875 
L 47.609375 17.1875 
L 47.609375 0 
L 37.796875 0 
L 37.796875 17.1875 
L 4.890625 17.1875 
L 4.890625 26.703125 
z
" id="DejaVuSans-52"/>
       <path id="DejaVuSans-32"/>
       <path d="M 10.984375 1.515625 
L 10.984375 10.5 
Q 14.703125 8.734375 18.5 7.8125 
Q 22.3125 6.890625 25.984375 6.890625 
Q 35.75 6.890625 40.890625 13.453125 
Q 46.046875 20.015625 46.78125 33.40625 
Q 43.953125 29.203125 39.59375 26.953125 
Q 35.25 24.703125 29.984375 24.703125 
Q 19.046875 24.703125 12.671875 31.3125 
Q 6.296875 37.9375 6.296875 49.421875 
Q 6.296875 60.640625 12.9375 67.421875 
Q 19.578125 74.21875 30.609375 74.21875 
Q 43.265625 74.21875 49.921875 64.515625 
Q 56.59375 54.828125 56.59375 36.375 
Q 56.59375 19.140625 48.40625 8.859375 
Q 40.234375 -1.421875 26.421875 -1.421875 
Q 22.703125 -1.421875 18.890625 -0.6875 
Q 15.09375 0.046875 10.984375 1.515625 
z
M 30.609375 32.421875 
Q 37.25 32.421875 41.125 36.953125 
Q 45.015625 41.5 45.015625 49.421875 
Q 45.015625 57.28125 41.125 61.84375 
Q 37.25 66.40625 30.609375 66.40625 
Q 23.96875 66.40625 20.09375 61.84375 
Q 16.21875 57.28125 16.21875 49.421875 
Q 16.21875 41.5 20.09375 36.953125 
Q 23.96875 32.421875 30.609375 32.421875 
z
" id="DejaVuSans-57"/>
       <path d="M 11.71875 12.40625 
L 22.015625 12.40625 
L 22.015625 0 
L 11.71875 0 
z
M 11.71875 51.703125 
L 22.015625 51.703125 
L 22.015625 39.3125 
L 11.71875 39.3125 
z
" id="DejaVuSans-58"/>
       <path d="M 40.578125 39.3125 
Q 47.65625 37.796875 51.625 33 
Q 55.609375 28.21875 55.609375 21.1875 
Q 55.609375 10.40625 48.1875 4.484375 
Q 40.765625 -1.421875 27.09375 -1.421875 
Q 22.515625 -1.421875 17.65625 -0.515625 
Q 12.796875 0.390625 7.625 2.203125 
L 7.625 11.71875 
Q 11.71875 9.328125 16.59375 8.109375 
Q 21.484375 6.890625 26.8125 6.890625 
Q 36.078125 6.890625 40.9375 10.546875 
Q 45.796875 14.203125 45.796875 21.1875 
Q 45.796875 27.640625 41.28125 31.265625 
Q 36.765625 34.90625 28.71875 34.90625 
L 20.21875 34.90625 
L 20.21875 43.015625 
L 29.109375 43.015625 
Q 36.375 43.015625 40.234375 45.921875 
Q 44.09375 48.828125 44.09375 54.296875 
Q 44.09375 59.90625 40.109375 62.90625 
Q 36.140625 65.921875 28.71875 65.921875 
Q 24.65625 65.921875 20.015625 65.03125 
Q 15.375 64.15625 9.8125 62.3125 
L 9.8125 71.09375 
Q 15.4375 72.65625 20.34375 73.4375 
Q 25.25 74.21875 29.59375 74.21875 
Q 40.828125 74.21875 47.359375 69.109375 
Q 53.90625 64.015625 53.90625 55.328125 
Q 53.90625 49.265625 50.4375 45.09375 
Q 46.96875 40.921875 40.578125 39.3125 
z
" id="DejaVuSans-51"/>
      </defs>
      <g transform="translate(7.2 239.238438)scale(0.1 -0.1)">
       <use xlink:href="#DejaVuSans-50"/>
       <use x="63.623047" xlink:href="#DejaVuSans-48"/>
       <use x="127.246094" xlink:href="#DejaVuSans-49"/>
       <use x="190.869141" xlink:href="#DejaVuSans-53"/>
       <use x="254.492188" xlink:href="#DejaVuSans-45"/>
       <use x="290.576172" xlink:href="#DejaVuSans-48"/>
       <use x="354.199219" xlink:href="#DejaVuSans-53"/>
       <use x="417.822266" xlink:href="#DejaVuSans-45"/>
       <use x="453.90625" xlink:href="#DejaVuSans-48"/>
       <use x="517.529297" xlink:href="#DejaVuSans-52"/>
       <use x="581.152344" xlink:href="#DejaVuSans-32"/>
       <use x="612.939453" xlink:href="#DejaVuSans-48"/>
       <use x="676.5625" xlink:href="#DejaVuSans-57"/>
       <use x="740.185547" xlink:href="#DejaVuSans-58"/>
       <use x="773.876953" xlink:href="#DejaVuSans-51"/>
       <use x="837.5" xlink:href="#DejaVuSans-49"/>
       <use x="901.123047" xlink:href="#DejaVuSans-58"/>
       <use x="934.814453" xlink:href="#DejaVuSans-48"/>
       <use x="998.4375" xlink:href="#DejaVuSans-48"/>
      </g>
     </g>
    </g>
    <g id="xtick_2">
     <g id="line2d_2">
      <g>
       <use style="stroke:#000000;stroke-width:0.8;" x="130.067659" xlink:href="#m250c252f25" y="224.64"/>
      </g>
     </g>
     <g id="text_2">
      <!-- 2015-05-08 10:11:00 -->
      <defs>
       <path d="M 31.78125 34.625 
Q 24.75 34.625 20.71875 30.859375 
Q 16.703125 27.09375 16.703125 20.515625 
Q 16.703125 13.921875 20.71875 10.15625 
Q 24.75 6.390625 31.78125 6.390625 
Q 38.8125 6.390625 42.859375 10.171875 
Q 46.921875 13.96875 46.921875 20.515625 
Q 46.921875 27.09375 42.890625 30.859375 
Q 38.875 34.625 31.78125 34.625 
z
M 21.921875 38.8125 
Q 15.578125 40.375 12.03125 44.71875 
Q 8.5 49.078125 8.5 55.328125 
Q 8.5 64.0625 14.71875 69.140625 
Q 20.953125 74.21875 31.78125 74.21875 
Q 42.671875 74.21875 48.875 69.140625 
Q 55.078125 64.0625 55.078125 55.328125 
Q 55.078125 49.078125 51.53125 44.71875 
Q 48 40.375 41.703125 38.8125 
Q 48.828125 37.15625 52.796875 32.3125 
Q 56.78125 27.484375 56.78125 20.515625 
Q 56.78125 9.90625 50.3125 4.234375 
Q 43.84375 -1.421875 31.78125 -1.421875 
Q 19.734375 -1.421875 13.25 4.234375 
Q 6.78125 9.90625 6.78125 20.515625 
Q 6.78125 27.484375 10.78125 32.3125 
Q 14.796875 37.15625 21.921875 38.8125 
z
M 18.3125 54.390625 
Q 18.3125 48.734375 21.84375 45.5625 
Q 25.390625 42.390625 31.78125 42.390625 
Q 38.140625 42.390625 41.71875 45.5625 
Q 45.3125 48.734375 45.3125 54.390625 
Q 45.3125 60.0625 41.71875 63.234375 
Q 38.140625 66.40625 31.78125 66.40625 
Q 25.390625 66.40625 21.84375 63.234375 
Q 18.3125 60.0625 18.3125 54.390625 
z
" id="DejaVuSans-56"/>
      </defs>
      <g transform="translate(76.964534 239.238438)scale(0.1 -0.1)">
       <use xlink:href="#DejaVuSans-50"/>
       <use x="63.623047" xlink:href="#DejaVuSans-48"/>
       <use x="127.246094" xlink:href="#DejaVuSans-49"/>
       <use x="190.869141" xlink:href="#DejaVuSans-53"/>
       <use x="254.492188" xlink:href="#DejaVuSans-45"/>
       <use x="290.576172" xlink:href="#DejaVuSans-48"/>
       <use x="354.199219" xlink:href="#DejaVuSans-53"/>
       <use x="417.822266" xlink:href="#DejaVuSans-45"/>
       <use x="453.90625" xlink:href="#DejaVuSans-48"/>
       <use x="517.529297" xlink:href="#DejaVuSans-56"/>
       <use x="581.152344" xlink:href="#DejaVuSans-32"/>
       <use x="612.939453" xlink:href="#DejaVuSans-49"/>
       <use x="676.5625" xlink:href="#DejaVuSans-48"/>
       <use x="740.185547" xlink:href="#DejaVuSans-58"/>
       <use x="773.876953" xlink:href="#DejaVuSans-49"/>
       <use x="837.5" xlink:href="#DejaVuSans-49"/>
       <use x="901.123047" xlink:href="#DejaVuSans-58"/>
       <use x="934.814453" xlink:href="#DejaVuSans-48"/>
       <use x="998.4375" xlink:href="#DejaVuSans-48"/>
      </g>
     </g>
    </g>
    <g id="xtick_3">
     <g id="line2d_3">
      <g>
       <use style="stroke:#000000;stroke-width:0.8;" x="199.832194" xlink:href="#m250c252f25" y="224.64"/>
      </g>
     </g>
     <g id="text_3">
      <!-- 2015-05-14 10:51:00 -->
      <g transform="translate(146.729069 239.238438)scale(0.1 -0.1)">
       <use xlink:href="#DejaVuSans-50"/>
       <use x="63.623047" xlink:href="#DejaVuSans-48"/>
       <use x="127.246094" xlink:href="#DejaVuSans-49"/>
       <use x="190.869141" xlink:href="#DejaVuSans-53"/>
       <use x="254.492188" xlink:href="#DejaVuSans-45"/>
       <use x="290.576172" xlink:href="#DejaVuSans-48"/>
       <use x="354.199219" xlink:href="#DejaVuSans-53"/>
       <use x="417.822266" xlink:href="#DejaVuSans-45"/>
       <use x="453.90625" xlink:href="#DejaVuSans-49"/>
       <use x="517.529297" xlink:href="#DejaVuSans-52"/>
       <use x="581.152344" xlink:href="#DejaVuSans-32"/>
       <use x="612.939453" xlink:href="#DejaVuSans-49"/>
       <use x="676.5625" xlink:href="#DejaVuSans-48"/>
       <use x="740.185547" xlink:href="#DejaVuSans-58"/>
       <use x="773.876953" xlink:href="#DejaVuSans-53"/>
       <use x="837.5" xlink:href="#DejaVuSans-49"/>
       <use x="901.123047" xlink:href="#DejaVuSans-58"/>
       <use x="934.814453" xlink:href="#DejaVuSans-48"/>
       <use x="998.4375" xlink:href="#DejaVuSans-48"/>
      </g>
     </g>
    </g>
    <g id="xtick_4">
     <g id="line2d_4">
      <g>
       <use style="stroke:#000000;stroke-width:0.8;" x="269.596728" xlink:href="#m250c252f25" y="224.64"/>
      </g>
     </g>
     <g id="text_4">
      <!-- 2015-05-20 13:01:00 -->
      <g transform="translate(216.493603 239.238438)scale(0.1 -0.1)">
       <use xlink:href="#DejaVuSans-50"/>
       <use x="63.623047" xlink:href="#DejaVuSans-48"/>
       <use x="127.246094" xlink:href="#DejaVuSans-49"/>
       <use x="190.869141" xlink:href="#DejaVuSans-53"/>
       <use x="254.492188" xlink:href="#DejaVuSans-45"/>
       <use x="290.576172" xlink:href="#DejaVuSans-48"/>
       <use x="354.199219" xlink:href="#DejaVuSans-53"/>
       <use x="417.822266" xlink:href="#DejaVuSans-45"/>
       <use x="453.90625" xlink:href="#DejaVuSans-50"/>
       <use x="517.529297" xlink:href="#DejaVuSans-48"/>
       <use x="581.152344" xlink:href="#DejaVuSans-32"/>
       <use x="612.939453" xlink:href="#DejaVuSans-49"/>
       <use x="676.5625" xlink:href="#DejaVuSans-51"/>
       <use x="740.185547" xlink:href="#DejaVuSans-58"/>
       <use x="773.876953" xlink:href="#DejaVuSans-48"/>
       <use x="837.5" xlink:href="#DejaVuSans-49"/>
       <use x="901.123047" xlink:href="#DejaVuSans-58"/>
       <use x="934.814453" xlink:href="#DejaVuSans-48"/>
       <use x="998.4375" xlink:href="#DejaVuSans-48"/>
      </g>
     </g>
    </g>
    <g id="xtick_5">
     <g id="line2d_5">
      <g>
       <use style="stroke:#000000;stroke-width:0.8;" x="339.361262" xlink:href="#m250c252f25" y="224.64"/>
      </g>
     </g>
     <g id="text_5">
      <!-- 2015-05-26 13:41:00 -->
      <defs>
       <path d="M 33.015625 40.375 
Q 26.375 40.375 22.484375 35.828125 
Q 18.609375 31.296875 18.609375 23.390625 
Q 18.609375 15.53125 22.484375 10.953125 
Q 26.375 6.390625 33.015625 6.390625 
Q 39.65625 6.390625 43.53125 10.953125 
Q 47.40625 15.53125 47.40625 23.390625 
Q 47.40625 31.296875 43.53125 35.828125 
Q 39.65625 40.375 33.015625 40.375 
z
M 52.59375 71.296875 
L 52.59375 62.3125 
Q 48.875 64.0625 45.09375 64.984375 
Q 41.3125 65.921875 37.59375 65.921875 
Q 27.828125 65.921875 22.671875 59.328125 
Q 17.53125 52.734375 16.796875 39.40625 
Q 19.671875 43.65625 24.015625 45.921875 
Q 28.375 48.1875 33.59375 48.1875 
Q 44.578125 48.1875 50.953125 41.515625 
Q 57.328125 34.859375 57.328125 23.390625 
Q 57.328125 12.15625 50.6875 5.359375 
Q 44.046875 -1.421875 33.015625 -1.421875 
Q 20.359375 -1.421875 13.671875 8.265625 
Q 6.984375 17.96875 6.984375 36.375 
Q 6.984375 53.65625 15.1875 63.9375 
Q 23.390625 74.21875 37.203125 74.21875 
Q 40.921875 74.21875 44.703125 73.484375 
Q 48.484375 72.75 52.59375 71.296875 
z
" id="DejaVuSans-54"/>
      </defs>
      <g transform="translate(286.258137 239.238438)scale(0.1 -0.1)">
       <use xlink:href="#DejaVuSans-50"/>
       <use x="63.623047" xlink:href="#DejaVuSans-48"/>
       <use x="127.246094" xlink:href="#DejaVuSans-49"/>
       <use x="190.869141" xlink:href="#DejaVuSans-53"/>
       <use x="254.492188" xlink:href="#DejaVuSans-45"/>
       <use x="290.576172" xlink:href="#DejaVuSans-48"/>
       <use x="354.199219" xlink:href="#DejaVuSans-53"/>
       <use x="417.822266" xlink:href="#DejaVuSans-45"/>
       <use x="453.90625" xlink:href="#DejaVuSans-50"/>
       <use x="517.529297" xlink:href="#DejaVuSans-54"/>
       <use x="581.152344" xlink:href="#DejaVuSans-32"/>
       <use x="612.939453" xlink:href="#DejaVuSans-49"/>
       <use x="676.5625" xlink:href="#DejaVuSans-51"/>
       <use x="740.185547" xlink:href="#DejaVuSans-58"/>
       <use x="773.876953" xlink:href="#DejaVuSans-52"/>
       <use x="837.5" xlink:href="#DejaVuSans-49"/>
       <use x="901.123047" xlink:href="#DejaVuSans-58"/>
       <use x="934.814453" xlink:href="#DejaVuSans-48"/>
       <use x="998.4375" xlink:href="#DejaVuSans-48"/>
      </g>
     </g>
    </g>
    <g id="text_6">
     <!-- timestamp -->
     <defs>
      <path d="M 18.3125 70.21875 
L 18.3125 54.6875 
L 36.8125 54.6875 
L 36.8125 47.703125 
L 18.3125 47.703125 
L 18.3125 18.015625 
Q 18.3125 11.328125 20.140625 9.421875 
Q 21.96875 7.515625 27.59375 7.515625 
L 36.8125 7.515625 
L 36.8125 0 
L 27.59375 0 
Q 17.1875 0 13.234375 3.875 
Q 9.28125 7.765625 9.28125 18.015625 
L 9.28125 47.703125 
L 2.6875 47.703125 
L 2.6875 54.6875 
L 9.28125 54.6875 
L 9.28125 70.21875 
z
" id="DejaVuSans-116"/>
      <path d="M 9.421875 54.6875 
L 18.40625 54.6875 
L 18.40625 0 
L 9.421875 0 
z
M 9.421875 75.984375 
L 18.40625 75.984375 
L 18.40625 64.59375 
L 9.421875 64.59375 
z
" id="DejaVuSans-105"/>
      <path d="M 52 44.1875 
Q 55.375 50.25 60.0625 53.125 
Q 64.75 56 71.09375 56 
Q 79.640625 56 84.28125 50.015625 
Q 88.921875 44.046875 88.921875 33.015625 
L 88.921875 0 
L 79.890625 0 
L 79.890625 32.71875 
Q 79.890625 40.578125 77.09375 44.375 
Q 74.3125 48.1875 68.609375 48.1875 
Q 61.625 48.1875 57.5625 43.546875 
Q 53.515625 38.921875 53.515625 30.90625 
L 53.515625 0 
L 44.484375 0 
L 44.484375 32.71875 
Q 44.484375 40.625 41.703125 44.40625 
Q 38.921875 48.1875 33.109375 48.1875 
Q 26.21875 48.1875 22.15625 43.53125 
Q 18.109375 38.875 18.109375 30.90625 
L 18.109375 0 
L 9.078125 0 
L 9.078125 54.6875 
L 18.109375 54.6875 
L 18.109375 46.1875 
Q 21.1875 51.21875 25.484375 53.609375 
Q 29.78125 56 35.6875 56 
Q 41.65625 56 45.828125 52.96875 
Q 50 49.953125 52 44.1875 
z
" id="DejaVuSans-109"/>
      <path d="M 56.203125 29.59375 
L 56.203125 25.203125 
L 14.890625 25.203125 
Q 15.484375 15.921875 20.484375 11.0625 
Q 25.484375 6.203125 34.421875 6.203125 
Q 39.59375 6.203125 44.453125 7.46875 
Q 49.3125 8.734375 54.109375 11.28125 
L 54.109375 2.78125 
Q 49.265625 0.734375 44.1875 -0.34375 
Q 39.109375 -1.421875 33.890625 -1.421875 
Q 20.796875 -1.421875 13.15625 6.1875 
Q 5.515625 13.8125 5.515625 26.8125 
Q 5.515625 40.234375 12.765625 48.109375 
Q 20.015625 56 32.328125 56 
Q 43.359375 56 49.78125 48.890625 
Q 56.203125 41.796875 56.203125 29.59375 
z
M 47.21875 32.234375 
Q 47.125 39.59375 43.09375 43.984375 
Q 39.0625 48.390625 32.421875 48.390625 
Q 24.90625 48.390625 20.390625 44.140625 
Q 15.875 39.890625 15.1875 32.171875 
z
" id="DejaVuSans-101"/>
      <path d="M 44.28125 53.078125 
L 44.28125 44.578125 
Q 40.484375 46.53125 36.375 47.5 
Q 32.28125 48.484375 27.875 48.484375 
Q 21.1875 48.484375 17.84375 46.4375 
Q 14.5 44.390625 14.5 40.28125 
Q 14.5 37.15625 16.890625 35.375 
Q 19.28125 33.59375 26.515625 31.984375 
L 29.59375 31.296875 
Q 39.15625 29.25 43.1875 25.515625 
Q 47.21875 21.78125 47.21875 15.09375 
Q 47.21875 7.46875 41.1875 3.015625 
Q 35.15625 -1.421875 24.609375 -1.421875 
Q 20.21875 -1.421875 15.453125 -0.5625 
Q 10.6875 0.296875 5.421875 2 
L 5.421875 11.28125 
Q 10.40625 8.6875 15.234375 7.390625 
Q 20.0625 6.109375 24.8125 6.109375 
Q 31.15625 6.109375 34.5625 8.28125 
Q 37.984375 10.453125 37.984375 14.40625 
Q 37.984375 18.0625 35.515625 20.015625 
Q 33.0625 21.96875 24.703125 23.78125 
L 21.578125 24.515625 
Q 13.234375 26.265625 9.515625 29.90625 
Q 5.8125 33.546875 5.8125 39.890625 
Q 5.8125 47.609375 11.28125 51.796875 
Q 16.75 56 26.8125 56 
Q 31.78125 56 36.171875 55.265625 
Q 40.578125 54.546875 44.28125 53.078125 
z
" id="DejaVuSans-115"/>
      <path d="M 34.28125 27.484375 
Q 23.390625 27.484375 19.1875 25 
Q 14.984375 22.515625 14.984375 16.5 
Q 14.984375 11.71875 18.140625 8.90625 
Q 21.296875 6.109375 26.703125 6.109375 
Q 34.1875 6.109375 38.703125 11.40625 
Q 43.21875 16.703125 43.21875 25.484375 
L 43.21875 27.484375 
z
M 52.203125 31.203125 
L 52.203125 0 
L 43.21875 0 
L 43.21875 8.296875 
Q 40.140625 3.328125 35.546875 0.953125 
Q 30.953125 -1.421875 24.3125 -1.421875 
Q 15.921875 -1.421875 10.953125 3.296875 
Q 6 8.015625 6 15.921875 
Q 6 25.140625 12.171875 29.828125 
Q 18.359375 34.515625 30.609375 34.515625 
L 43.21875 34.515625 
L 43.21875 35.40625 
Q 43.21875 41.609375 39.140625 45 
Q 35.0625 48.390625 27.6875 48.390625 
Q 23 48.390625 18.546875 47.265625 
Q 14.109375 46.140625 10.015625 43.890625 
L 10.015625 52.203125 
Q 14.9375 54.109375 19.578125 55.046875 
Q 24.21875 56 28.609375 56 
Q 40.484375 56 46.34375 49.84375 
Q 52.203125 43.703125 52.203125 31.203125 
z
" id="DejaVuSans-97"/>
      <path d="M 18.109375 8.203125 
L 18.109375 -20.796875 
L 9.078125 -20.796875 
L 9.078125 54.6875 
L 18.109375 54.6875 
L 18.109375 46.390625 
Q 20.953125 51.265625 25.265625 53.625 
Q 29.59375 56 35.59375 56 
Q 45.5625 56 51.78125 48.09375 
Q 58.015625 40.1875 58.015625 27.296875 
Q 58.015625 14.40625 51.78125 6.484375 
Q 45.5625 -1.421875 35.59375 -1.421875 
Q 29.59375 -1.421875 25.265625 0.953125 
Q 20.953125 3.328125 18.109375 8.203125 
z
M 48.6875 27.296875 
Q 48.6875 37.203125 44.609375 42.84375 
Q 40.53125 48.484375 33.40625 48.484375 
Q 26.265625 48.484375 22.1875 42.84375 
Q 18.109375 37.203125 18.109375 27.296875 
Q 18.109375 17.390625 22.1875 11.75 
Q 26.265625 6.109375 33.40625 6.109375 
Q 40.53125 6.109375 44.609375 11.75 
Q 48.6875 17.390625 48.6875 27.296875 
z
" id="DejaVuSans-112"/>
     </defs>
     <g transform="translate(200.733594 252.916563)scale(0.1 -0.1)">
      <use xlink:href="#DejaVuSans-116"/>
      <use x="39.208984" xlink:href="#DejaVuSans-105"/>
      <use x="66.992188" xlink:href="#DejaVuSans-109"/>
      <use x="164.404297" xlink:href="#DejaVuSans-101"/>
      <use x="225.927734" xlink:href="#DejaVuSans-115"/>
      <use x="278.027344" xlink:href="#DejaVuSans-116"/>
      <use x="317.236328" xlink:href="#DejaVuSans-97"/>
      <use x="378.515625" xlink:href="#DejaVuSans-109"/>
      <use x="475.927734" xlink:href="#DejaVuSans-112"/>
     </g>
    </g>
   </g>
   <g id="matplotlib.axis_2">
    <g id="ytick_1">
     <g id="line2d_6">
      <defs>
       <path d="M 0 0 
L -3.5 0 
" id="m4510db1b18" style="stroke:#000000;stroke-width:0.8;"/>
      </defs>
      <g>
       <use style="stroke:#000000;stroke-width:0.8;" x="60.303125" xlink:href="#m4510db1b18" y="202.938389"/>
      </g>
     </g>
     <g id="text_7">
      <!-- 4500 -->
      <g transform="translate(27.853125 206.737608)scale(0.1 -0.1)">
       <use xlink:href="#DejaVuSans-52"/>
       <use x="63.623047" xlink:href="#DejaVuSans-53"/>
       <use x="127.246094" xlink:href="#DejaVuSans-48"/>
       <use x="190.869141" xlink:href="#DejaVuSans-48"/>
      </g>
     </g>
    </g>
    <g id="ytick_2">
     <g id="line2d_7">
      <g>
       <use style="stroke:#000000;stroke-width:0.8;" x="60.303125" xlink:href="#m4510db1b18" y="176.783431"/>
      </g>
     </g>
     <g id="text_8">
      <!-- 4600 -->
      <g transform="translate(27.853125 180.58265)scale(0.1 -0.1)">
       <use xlink:href="#DejaVuSans-52"/>
       <use x="63.623047" xlink:href="#DejaVuSans-54"/>
       <use x="127.246094" xlink:href="#DejaVuSans-48"/>
       <use x="190.869141" xlink:href="#DejaVuSans-48"/>
      </g>
     </g>
    </g>
    <g id="ytick_3">
     <g id="line2d_8">
      <g>
       <use style="stroke:#000000;stroke-width:0.8;" x="60.303125" xlink:href="#m4510db1b18" y="150.628473"/>
      </g>
     </g>
     <g id="text_9">
      <!-- 4700 -->
      <defs>
       <path d="M 8.203125 72.90625 
L 55.078125 72.90625 
L 55.078125 68.703125 
L 28.609375 0 
L 18.3125 0 
L 43.21875 64.59375 
L 8.203125 64.59375 
z
" id="DejaVuSans-55"/>
      </defs>
      <g transform="translate(27.853125 154.427692)scale(0.1 -0.1)">
       <use xlink:href="#DejaVuSans-52"/>
       <use x="63.623047" xlink:href="#DejaVuSans-55"/>
       <use x="127.246094" xlink:href="#DejaVuSans-48"/>
       <use x="190.869141" xlink:href="#DejaVuSans-48"/>
      </g>
     </g>
    </g>
    <g id="ytick_4">
     <g id="line2d_9">
      <g>
       <use style="stroke:#000000;stroke-width:0.8;" x="60.303125" xlink:href="#m4510db1b18" y="124.473515"/>
      </g>
     </g>
     <g id="text_10">
      <!-- 4800 -->
      <g transform="translate(27.853125 128.272734)scale(0.1 -0.1)">
       <use xlink:href="#DejaVuSans-52"/>
       <use x="63.623047" xlink:href="#DejaVuSans-56"/>
       <use x="127.246094" xlink:href="#DejaVuSans-48"/>
       <use x="190.869141" xlink:href="#DejaVuSans-48"/>
      </g>
     </g>
    </g>
    <g id="ytick_5">
     <g id="line2d_10">
      <g>
       <use style="stroke:#000000;stroke-width:0.8;" x="60.303125" xlink:href="#m4510db1b18" y="98.318557"/>
      </g>
     </g>
     <g id="text_11">
      <!-- 4900 -->
      <g transform="translate(27.853125 102.117776)scale(0.1 -0.1)">
       <use xlink:href="#DejaVuSans-52"/>
       <use x="63.623047" xlink:href="#DejaVuSans-57"/>
       <use x="127.246094" xlink:href="#DejaVuSans-48"/>
       <use x="190.869141" xlink:href="#DejaVuSans-48"/>
      </g>
     </g>
    </g>
    <g id="ytick_6">
     <g id="line2d_11">
      <g>
       <use style="stroke:#000000;stroke-width:0.8;" x="60.303125" xlink:href="#m4510db1b18" y="72.163599"/>
      </g>
     </g>
     <g id="text_12">
      <!-- 5000 -->
      <g transform="translate(27.853125 75.962818)scale(0.1 -0.1)">
       <use xlink:href="#DejaVuSans-53"/>
       <use x="63.623047" xlink:href="#DejaVuSans-48"/>
       <use x="127.246094" xlink:href="#DejaVuSans-48"/>
       <use x="190.869141" xlink:href="#DejaVuSans-48"/>
      </g>
     </g>
    </g>
    <g id="ytick_7">
     <g id="line2d_12">
      <g>
       <use style="stroke:#000000;stroke-width:0.8;" x="60.303125" xlink:href="#m4510db1b18" y="46.008641"/>
      </g>
     </g>
     <g id="text_13">
      <!-- 5100 -->
      <g transform="translate(27.853125 49.80786)scale(0.1 -0.1)">
       <use xlink:href="#DejaVuSans-53"/>
       <use x="63.623047" xlink:href="#DejaVuSans-49"/>
       <use x="127.246094" xlink:href="#DejaVuSans-48"/>
       <use x="190.869141" xlink:href="#DejaVuSans-48"/>
      </g>
     </g>
    </g>
    <g id="ytick_8">
     <g id="line2d_13">
      <g>
       <use style="stroke:#000000;stroke-width:0.8;" x="60.303125" xlink:href="#m4510db1b18" y="19.853683"/>
      </g>
     </g>
     <g id="text_14">
      <!-- 5200 -->
      <g transform="translate(27.853125 23.652902)scale(0.1 -0.1)">
       <use xlink:href="#DejaVuSans-53"/>
       <use x="63.623047" xlink:href="#DejaVuSans-50"/>
       <use x="127.246094" xlink:href="#DejaVuSans-48"/>
       <use x="190.869141" xlink:href="#DejaVuSans-48"/>
      </g>
     </g>
    </g>
   </g>
   <g id="line2d_14">
    <path clip-path="url(#p56c8188e14)" d="M 60.303125 138.608887 
L 61.279828 138.608887 
L 61.419358 144.669147 
L 62.326296 144.669147 
L 62.465826 139.217808 
L 63.372765 139.217808 
L 63.512294 138.283484 
L 64.419233 138.283484 
L 64.558762 132.921388 
L 65.465701 132.921388 
L 65.60523 134.088665 
L 66.512169 134.088665 
L 66.651698 130.600144 
L 67.558637 130.600144 
L 67.698166 128.615775 
L 68.605105 128.615775 
L 68.744634 126.438756 
L 69.651573 126.438756 
L 69.791102 128.476801 
L 70.698041 128.476801 
L 70.83757 132.529628 
L 71.744509 132.529628 
L 71.884038 131.838869 
L 73.837445 131.864731 
L 73.976974 134.514049 
L 74.883913 134.514049 
L 75.023442 131.714401 
L 75.930381 131.714401 
L 76.06991 129.33088 
L 76.976849 129.33088 
L 77.116378 131.0861 
L 78.023317 131.0861 
L 78.162846 133.384442 
L 79.069785 133.384442 
L 79.209314 138.528426 
L 80.116253 138.528426 
L 80.255782 138.255885 
L 81.162721 138.255885 
L 81.30225 138.413082 
L 82.209189 138.413082 
L 82.348718 141.056455 
L 83.255657 141.056455 
L 83.395186 147.420514 
L 84.302125 147.420514 
L 84.441654 154.242504 
L 85.348593 154.242504 
L 85.488122 158.432208 
L 86.395061 158.432208 
L 86.53459 156.632474 
L 87.441529 156.632474 
L 87.581058 162.33204 
L 88.487997 162.33204 
L 88.627526 161.275167 
L 89.534465 161.275167 
L 89.673994 161.485154 
L 90.580933 161.485154 
L 90.720462 174.239483 
L 91.627401 174.239483 
L 91.76693 177.929418 
L 92.673869 177.929418 
L 92.813398 175.803611 
L 93.720337 175.803611 
L 93.859866 168.100982 
L 94.766805 168.100982 
L 94.906334 171.00205 
L 95.813273 171.00205 
L 95.952802 167.440737 
L 96.859741 167.440737 
L 96.99927 166.996662 
L 97.906209 166.996662 
L 98.045738 164.073739 
L 98.952677 164.073739 
L 99.092206 158.347499 
L 99.999145 158.347499 
L 100.138674 154.360343 
L 101.045613 154.360343 
L 101.185142 154.063799 
L 102.092081 154.063799 
L 102.23161 152.648565 
L 104.185017 152.642274 
L 104.324546 156.350867 
L 105.231485 156.350867 
L 105.371014 162.751614 
L 106.277953 162.751614 
L 106.417482 169.832766 
L 107.324421 169.832766 
L 107.46395 182.059773 
L 108.370889 182.059773 
L 108.510418 189.050324 
L 109.417357 189.050324 
L 109.556886 195.30975 
L 110.463825 195.30975 
L 110.603354 194.125602 
L 111.510293 194.125602 
L 111.649822 197.321369 
L 112.556761 197.321369 
L 112.69629 201.183189 
L 113.603229 201.183189 
L 113.742758 198.333409 
L 114.649697 198.333409 
L 114.789226 193.351761 
L 115.696165 193.351761 
L 115.835694 200.029029 
L 116.742633 200.029029 
L 116.882162 198.417598 
L 117.789101 198.417598 
L 117.92863 198.560138 
L 118.835569 198.560138 
L 118.975098 198.875787 
L 119.882037 198.875787 
L 120.021566 203.361724 
L 120.928505 203.361724 
L 121.068034 207.243132 
L 121.974973 207.243132 
L 122.114502 206.281632 
L 123.021441 206.281632 
L 123.16097 200.773649 
L 124.067909 200.773649 
L 124.207438 204.939665 
L 125.114377 204.939665 
L 125.253906 206.301882 
L 126.160845 206.301882 
L 126.300374 210.091622 
L 127.207313 210.091622 
L 127.346842 195.198754 
L 128.253781 195.198754 
L 128.39331 202.348185 
L 129.300249 202.348185 
L 129.439778 200.705608 
L 130.346717 200.705608 
L 130.486246 198.703038 
L 131.393185 198.703038 
L 131.532714 197.787716 
L 132.439653 197.787716 
L 132.579183 194.186384 
L 133.486121 194.186384 
L 133.625651 192.353997 
L 134.532589 192.353997 
L 134.672119 194.631982 
L 135.579057 194.631982 
L 135.718587 199.644551 
L 136.625526 199.644551 
L 136.765055 209.865338 
L 137.671994 209.865338 
L 137.811523 214.756364 
L 138.718462 214.756364 
L 138.857991 212.305619 
L 139.76493 212.305619 
L 139.904459 208.840382 
L 140.811398 208.840382 
L 140.950927 203.96992 
L 141.857866 203.96992 
L 141.997395 197.069323 
L 142.904334 197.069323 
L 143.043863 190.299653 
L 143.950802 190.299653 
L 144.090331 186.969919 
L 144.99727 186.969919 
L 145.136799 187.362712 
L 146.043738 187.362712 
L 146.183267 179.185392 
L 147.090206 179.185392 
L 147.229735 177.593878 
L 148.136674 177.593878 
L 148.276203 175.514412 
L 149.183142 175.514412 
L 149.322671 177.010228 
L 150.22961 177.010228 
L 150.369139 178.80445 
L 151.276078 178.80445 
L 151.415607 177.760875 
L 152.322546 177.760875 
L 152.462075 171.515378 
L 153.369014 171.515378 
L 153.508543 168.062226 
L 154.415482 168.062226 
L 154.555011 165.707123 
L 155.46195 165.707123 
L 155.601479 163.644267 
L 156.508418 163.644267 
L 156.647947 164.958261 
L 157.554886 164.958261 
L 157.694415 159.365698 
L 158.601354 159.365698 
L 158.740883 157.154194 
L 159.647822 157.154194 
L 159.787351 153.950764 
L 160.69429 153.950764 
L 160.833819 153.586621 
L 161.740758 153.586621 
L 161.880287 150.104856 
L 162.787226 150.104856 
L 162.926755 157.274711 
L 163.833694 157.274711 
L 163.973223 151.610542 
L 164.880162 151.610542 
L 165.019691 147.463276 
L 165.92663 147.463276 
L 166.066159 145.271543 
L 166.973098 145.271543 
L 167.112627 152.43509 
L 168.019566 152.43509 
L 168.159095 151.249345 
L 169.066034 151.249345 
L 169.205563 147.379607 
L 170.112502 147.379607 
L 170.252031 147.153605 
L 171.15897 147.153605 
L 171.298499 144.47702 
L 172.205438 144.47702 
L 172.344967 141.502001 
L 173.251906 141.502001 
L 173.391435 140.215338 
L 174.298374 140.215338 
L 174.437903 145.577581 
L 175.344842 145.577581 
L 175.484371 141.988176 
L 176.39131 141.988176 
L 176.530839 138.882425 
L 177.437778 138.882425 
L 177.577307 141.930414 
L 179.530714 141.875202 
L 179.670243 139.178416 
L 180.577182 139.178416 
L 180.716711 139.880703 
L 181.62365 139.880703 
L 181.763179 144.316004 
L 182.670118 144.316004 
L 182.809647 140.036825 
L 183.716586 140.036825 
L 183.856115 139.536045 
L 184.763054 139.536045 
L 184.902583 139.840079 
L 185.809522 139.840079 
L 185.949051 138.086769 
L 186.85599 138.086769 
L 186.995519 139.65662 
L 187.902458 139.65662 
L 188.041987 140.041839 
L 188.948926 140.041839 
L 189.088455 138.406913 
L 189.995394 138.406913 
L 190.134923 143.233659 
L 191.041862 143.233659 
L 191.181391 151.29141 
L 192.08833 151.29141 
L 192.227859 149.698379 
L 193.134798 149.698379 
L 193.274327 147.201141 
L 194.181266 147.201141 
L 194.320795 145.400598 
L 195.227734 145.400598 
L 195.367263 147.643077 
L 196.274202 147.643077 
L 196.413731 152.280621 
L 197.32067 152.280621 
L 197.460199 153.81764 
L 198.367138 153.81764 
L 198.506667 148.094332 
L 200.460074 148.110403 
L 200.599603 147.945559 
L 201.506542 147.945559 
L 201.646071 147.55878 
L 202.55301 147.55878 
L 202.692539 144.779628 
L 203.599478 144.779628 
L 203.739007 148.616598 
L 204.645946 148.616598 
L 204.785475 150.663461 
L 206.738882 150.754527 
L 206.878412 154.226076 
L 207.78535 154.226076 
L 207.92488 153.159684 
L 208.831818 153.159684 
L 208.971348 148.992763 
L 209.878286 148.992763 
L 210.017816 150.580909 
L 210.924755 150.580909 
L 211.064284 157.252776 
L 211.971223 157.252776 
L 212.110752 160.052961 
L 213.017691 160.052961 
L 213.15722 164.593842 
L 214.064159 164.593842 
L 214.203688 165.236946 
L 215.110627 165.236946 
L 215.250156 171.159206 
L 216.157095 171.159206 
L 216.296624 176.138524 
L 217.203563 176.138524 
L 217.343092 172.439501 
L 218.250031 172.439501 
L 218.38956 170.87333 
L 219.296499 170.87333 
L 219.436028 170.439616 
L 220.342967 170.439616 
L 220.482496 170.018698 
L 221.389435 170.018698 
L 221.528964 175.627909 
L 222.435903 175.627909 
L 222.575432 169.95623 
L 223.482371 169.95623 
L 223.6219 165.887141 
L 224.528839 165.887141 
L 224.668368 160.873679 
L 225.575307 160.873679 
L 225.714836 161.181562 
L 226.621775 161.181562 
L 226.761304 169.277207 
L 227.668243 169.277207 
L 227.807772 181.525429 
L 228.714711 181.525429 
L 228.85424 179.199876 
L 229.761179 179.199876 
L 229.900708 177.172202 
L 230.807647 177.172202 
L 230.947176 173.583595 
L 231.854115 173.583595 
L 231.993644 176.976843 
L 232.900583 176.976843 
L 233.040112 175.880069 
L 233.947051 175.880069 
L 234.08658 175.242295 
L 234.993519 175.242295 
L 235.133048 174.301303 
L 236.039987 174.301303 
L 236.179516 172.597635 
L 237.086455 172.597635 
L 237.225984 172.360242 
L 238.132923 172.360242 
L 238.272452 173.522807 
L 239.179391 173.522807 
L 239.31892 178.893224 
L 240.225859 178.893224 
L 240.365388 177.490452 
L 241.272327 177.490452 
L 241.411856 178.889298 
L 242.318795 178.889298 
L 242.458324 182.693054 
L 243.365263 182.693054 
L 243.504792 183.075515 
L 244.411731 183.075515 
L 244.55126 176.979114 
L 245.458199 176.979114 
L 245.597728 170.579758 
L 246.504667 170.579758 
L 246.644196 168.890608 
L 247.551135 168.890608 
L 247.690664 160.983865 
L 248.597603 160.983865 
L 248.737132 158.847124 
L 249.644071 158.847124 
L 249.7836 155.021208 
L 250.690539 155.021208 
L 250.830068 152.806579 
L 251.737007 152.806579 
L 251.876536 146.536551 
L 252.783475 146.536551 
L 252.923004 144.675041 
L 253.829943 144.675041 
L 253.969472 147.146221 
L 254.876411 147.146221 
L 255.01594 150.710002 
L 255.922879 150.710002 
L 256.062408 148.592362 
L 256.969347 148.592362 
L 257.108876 151.134732 
L 258.015815 151.134732 
L 258.155344 146.398615 
L 259.062283 146.398615 
L 259.201812 142.850401 
L 260.108751 142.850401 
L 260.24828 143.500644 
L 261.155219 143.500644 
L 261.294748 135.377181 
L 262.201687 135.377181 
L 262.341216 135.9946 
L 263.248155 135.9946 
L 263.387684 136.269168 
L 264.294623 136.269168 
L 264.434152 132.76573 
L 265.341091 132.76573 
L 265.48062 133.364049 
L 266.387559 133.364049 
L 266.527088 129.73478 
L 267.434027 129.73478 
L 267.573556 125.097683 
L 268.480495 125.097683 
L 268.620024 126.125513 
L 269.526963 126.125513 
L 269.666492 125.399053 
L 271.619899 125.425626 
L 271.759428 119.746595 
L 272.666367 119.746595 
L 272.805896 119.255934 
L 273.712835 119.255934 
L 273.852364 116.376642 
L 274.759303 116.376642 
L 274.898832 116.264166 
L 275.805771 116.264166 
L 275.9453 131.805345 
L 276.852239 131.805345 
L 276.991768 136.271213 
L 277.898707 136.271213 
L 278.038236 130.014814 
L 278.945175 130.014814 
L 279.084704 132.734931 
L 279.991643 132.734931 
L 280.131173 132.604292 
L 281.038111 132.604292 
L 281.177641 127.499737 
L 282.084579 127.499737 
L 282.224109 126.053443 
L 283.131047 126.053443 
L 283.270577 123.115581 
L 284.177515 123.115581 
L 284.317045 123.62281 
L 285.223984 123.62281 
L 285.363513 122.008058 
L 286.270452 122.008058 
L 286.409981 118.006865 
L 287.31692 118.006865 
L 287.456449 119.373814 
L 288.363388 119.373814 
L 288.502917 120.112473 
L 289.409856 120.112473 
L 289.549385 127.095631 
L 290.456324 127.095631 
L 290.595853 126.188161 
L 291.502792 126.188161 
L 291.642321 124.914993 
L 292.54926 124.914993 
L 292.688789 120.382594 
L 293.595728 120.382594 
L 293.735257 115.598091 
L 294.642196 115.598091 
L 294.781725 97.946791 
L 295.688664 97.946791 
L 295.828193 98.682465 
L 296.735132 98.682465 
L 296.874661 98.118905 
L 297.7816 98.118905 
L 297.921129 97.377847 
L 298.828068 97.377847 
L 298.967597 102.518426 
L 299.874536 102.518426 
L 300.014065 96.943431 
L 300.921004 96.943431 
L 301.060533 94.576668 
L 301.967472 94.576668 
L 302.107001 94.22143 
L 303.01394 94.22143 
L 303.153469 90.572615 
L 304.060408 90.572615 
L 304.199937 91.960213 
L 305.106876 91.960213 
L 305.246405 93.482446 
L 306.153344 93.482446 
L 306.292873 92.112888 
L 307.199812 92.112888 
L 307.339341 91.032771 
L 308.24628 91.032771 
L 308.385809 88.607762 
L 309.292748 88.607762 
L 309.432277 88.014852 
L 310.339216 88.014852 
L 310.478745 85.506149 
L 311.385684 85.506149 
L 311.525213 77.1176 
L 312.432152 77.1176 
L 312.571681 67.218015 
L 313.47862 67.218015 
L 313.618149 63.878458 
L 314.525088 63.878458 
L 314.664617 61.636042 
L 315.571556 61.636042 
L 315.711085 64.826076 
L 316.618024 64.826076 
L 316.757553 60.837593 
L 317.664492 60.837593 
L 317.804021 62.169288 
L 318.71096 62.169288 
L 318.850489 58.148626 
L 319.757428 58.148626 
L 319.896957 56.180654 
L 320.803896 56.180654 
L 320.943425 55.058138 
L 321.850364 55.058138 
L 321.989893 54.257518 
L 322.896832 54.257518 
L 323.036361 53.009263 
L 323.9433 53.009263 
L 324.082829 57.000863 
L 324.989768 57.000863 
L 325.129297 56.136263 
L 326.036236 56.136263 
L 326.175765 50.212367 
L 327.082704 50.212367 
L 327.222233 47.030246 
L 328.129172 47.030246 
L 328.268701 38.048165 
L 329.17564 38.048165 
L 329.315169 43.723966 
L 330.222108 43.723966 
L 330.361637 50.489992 
L 331.268576 50.489992 
L 331.408105 41.634035 
L 332.315044 41.634035 
L 332.454573 37.946837 
L 333.361512 37.946837 
L 333.501041 34.909135 
L 334.40798 34.909135 
L 334.547509 32.801264 
L 335.454448 32.801264 
L 335.593977 28.92157 
L 336.500916 28.92157 
L 336.640445 26.760803 
L 337.547384 26.760803 
L 337.686913 29.93242 
L 338.593852 29.93242 
L 338.733381 36.144516 
L 339.64032 36.144516 
L 339.779849 28.189619 
L 340.686788 28.189619 
L 340.826317 26.480176 
L 341.733256 26.480176 
L 341.872785 25.891654 
L 342.779724 25.891654 
L 342.919253 22.360539 
L 343.826192 22.360539 
L 343.965721 21.036068 
L 344.87266 21.036068 
L 345.012189 17.083636 
L 345.919128 17.083636 
L 346.058657 29.305737 
L 346.965596 29.305737 
L 347.105125 32.303662 
L 348.012064 32.303662 
L 348.151593 26.517654 
L 349.058532 26.517654 
L 349.198061 23.73667 
L 350.105 23.73667 
L 350.244529 26.363709 
L 351.151468 26.363709 
L 351.290997 21.094362 
L 352.197936 21.094362 
L 352.337465 23.510488 
L 353.244404 23.510488 
L 353.383934 29.511562 
L 354.290872 29.511562 
L 354.430402 33.65559 
L 355.33734 33.65559 
L 355.47687 28.227184 
L 356.383808 28.227184 
L 356.523338 24.912944 
L 357.430276 24.912944 
L 357.569806 21.366463 
L 358.476745 21.366463 
L 358.616274 23.304124 
L 359.523213 23.304124 
L 359.662742 20.348291 
L 360.569681 20.348291 
L 360.70921 24.055699 
L 361.616149 24.055699 
L 361.755678 30.258141 
L 362.662617 30.258141 
L 362.802146 29.287049 
L 363.709085 29.287049 
L 363.848614 26.574518 
L 364.755553 26.574518 
L 364.895082 22.321886 
L 365.802021 22.321886 
L 365.94155 21.223531 
L 366.848489 21.223531 
L 366.988018 29.667416 
L 367.894957 29.667416 
L 368.034486 39.633193 
L 368.941425 39.633193 
L 369.080954 42.303418 
L 369.987893 42.303418 
L 370.127422 55.006214 
L 371.034361 55.006214 
L 371.17389 52.290808 
L 372.080829 52.290808 
L 372.220358 52.653791 
L 373.127297 52.653791 
L 373.266826 61.296258 
L 374.173765 61.296258 
L 374.313294 64.481944 
L 375.220233 64.481944 
L 375.359762 78.464842 
L 376.266701 78.464842 
L 376.40623 81.377203 
L 377.313169 81.377203 
L 377.452698 108.371282 
L 378.359637 108.371282 
L 378.499166 121.016026 
L 379.406105 121.016026 
L 379.545634 141.870841 
L 380.452573 141.870841 
L 380.592102 116.132261 
L 381.499041 116.132261 
L 381.63857 113.148019 
L 382.545509 113.148019 
L 382.685038 110.381945 
L 383.591977 110.381945 
L 383.731506 116.262815 
L 384.638445 116.262815 
L 384.777974 117.299802 
L 385.684913 117.299802 
L 385.824442 111.314718 
L 386.731381 111.314718 
L 386.87091 105.935264 
L 387.777849 105.935264 
L 387.917378 103.645967 
L 388.824317 103.645967 
L 388.963846 98.5219 
L 389.870785 98.5219 
L 390.010314 96.742216 
L 390.917253 96.742216 
L 391.056782 113.194719 
L 391.963721 113.194719 
L 392.10325 116.495565 
L 393.010189 116.495565 
L 393.149718 128.085518 
L 394.056657 128.085518 
L 394.196186 114.797639 
L 395.103125 114.797639 
L 395.103125 114.797639 
" style="fill:none;stroke:#1f77b4;stroke-linecap:square;stroke-width:1.5;"/>
   </g>
   <g id="patch_3">
    <path d="M 60.303125 224.64 
L 60.303125 7.2 
" style="fill:none;stroke:#000000;stroke-linecap:square;stroke-linejoin:miter;stroke-width:0.8;"/>
   </g>
   <g id="patch_4">
    <path d="M 395.103125 224.64 
L 395.103125 7.2 
" style="fill:none;stroke:#000000;stroke-linecap:square;stroke-linejoin:miter;stroke-width:0.8;"/>
   </g>
   <g id="patch_5">
    <path d="M 60.303125 224.64 
L 395.103125 224.64 
" style="fill:none;stroke:#000000;stroke-linecap:square;stroke-linejoin:miter;stroke-width:0.8;"/>
   </g>
   <g id="patch_6">
    <path d="M 60.303125 7.2 
L 395.103125 7.2 
" style="fill:none;stroke:#000000;stroke-linecap:square;stroke-linejoin:miter;stroke-width:0.8;"/>
   </g>
  </g>
 </g>
 <defs>
  <clipPath id="p56c8188e14">
   <rect height="217.44" width="334.8" x="60.303125" y="7.2"/>
  </clipPath>
 </defs>
</svg>
